<?xml version="1.0" standalone="no"?>
<!DOCTYPE svg PUBLIC "-//W3C//DTD SVG 20010904//EN"
 "http://www.w3.org/TR/2001/REC-SVG-20010904/DTD/svg10.dtd">
<svg version="1.0" xmlns="http://www.w3.org/2000/svg"
 width="1080.000000pt" height="1080.000000pt" viewBox="0 0 1080.000000 1080.000000"
 preserveAspectRatio="xMidYMid meet">
<metadata>
Created by potrace 1.14, written by Peter Selinger 2001-2017
</metadata>
<g transform="translate(0.000000,1080.000000) scale(0.100000,-0.100000)"
fill="#000000" stroke="none">
<path d="M4967 7463 c-521 -522 -950 -952 -954 -956 -4 -4 32 -47 80 -95 48
-49 84 -92 80 -97 -4 -4 -3 -5 3 -2 14 8 87 -66 77 -78 -5 -4 -3 -5 3 -2 12 7
81 -62 76 -76 -1 -5 1 -6 6 -3 10 6 118 -105 114 -117 -1 -5 2 -6 7 -3 5 3 22
-10 37 -30 16 -19 35 -41 42 -49 6 -7 12 -18 12 -24 0 -6 4 -11 8 -11 10 0 43
-56 37 -64 -3 -3 -2 -4 1 -1 17 12 113 -232 100 -254 -4 -5 -2 -11 3 -13 12
-4 24 -103 24 -193 -1 -110 -16 -205 -47 -293 -22 -62 -78 -176 -88 -180 -4
-2 -8 -8 -8 -13 0 -10 -63 -95 -93 -126 -427 -426 -480 -483 -466 -499 8 -10
76 -80 152 -156 81 -81 135 -143 131 -150 -4 -7 -3 -8 4 -4 14 8 75 -51 67
-64 -4 -6 2 -7 11 -3 11 4 15 2 11 -4 -4 -6 3 -13 14 -16 15 -4 20 -11 15 -22
-3 -9 -2 -14 3 -10 14 8 84 -62 75 -76 -4 -7 -3 -9 4 -5 15 9 125 -101 116
-116 -4 -7 -3 -8 4 -4 16 9 85 -60 76 -76 -4 -7 -4 -10 1 -6 13 12 47 -12 41
-28 -3 -8 -1 -12 4 -9 12 8 112 -93 105 -105 -4 -6 1 -7 11 -3 11 4 15 2 11
-4 -4 -6 3 -13 14 -16 15 -4 20 -11 15 -22 -3 -9 -2 -14 3 -10 14 8 84 -62 75
-76 -4 -8 -3 -9 4 -5 12 7 114 -88 104 -98 -3 -3 3 -6 12 -6 11 0 16 -5 13
-14 -3 -8 1 -13 11 -12 10 1 16 -6 16 -16 -1 -10 2 -15 7 -13 13 9 121 -103
113 -117 -4 -7 -3 -8 4 -4 16 9 85 -60 76 -76 -4 -7 -4 -10 1 -6 13 12 47 -12
41 -28 -3 -8 -1 -12 4 -9 12 8 112 -93 105 -105 -4 -6 1 -7 11 -3 11 4 15 2
11 -4 -4 -6 3 -13 14 -16 15 -4 20 -11 15 -22 -3 -9 -2 -14 3 -10 14 8 84 -62
75 -76 -4 -7 -3 -9 4 -5 15 9 125 -101 116 -116 -4 -7 -3 -8 4 -4 6 4 29 -11
52 -34 22 -22 37 -40 33 -41 -5 0 3 -5 16 -10 14 -6 21 -15 18 -24 -4 -9 -1
-12 7 -9 7 3 16 -2 19 -10 9 -23 30 -20 57 9 18 19 26 22 32 13 5 -9 8 -7 8 7
0 20 85 107 95 97 3 -3 5 1 5 8 0 17 106 121 114 113 3 -4 6 0 6 8 0 9 13 28
29 43 25 24 32 26 51 16 12 -6 24 -9 28 -6 3 3 1 6 -4 6 -5 0 -15 4 -22 9 -11
6 -8 15 13 37 15 16 33 28 40 26 8 -1 17 3 21 9 4 8 3 9 -4 5 -23 -14 -11 11
18 39 30 28 39 55 20 55 -16 0 -121 223 -109 231 7 4 5 8 -5 12 -9 4 -16 14
-16 22 0 9 5 13 10 10 6 -3 10 -1 10 4 0 6 -7 11 -15 11 -8 0 -16 8 -16 18 -1
9 -3 26 -5 37 -1 11 -5 37 -8 59 -4 21 -8 42 -11 46 -3 5 -1 11 5 15 5 3 10
11 10 16 0 6 -4 8 -8 5 -5 -3 -9 1 -9 9 0 8 4 15 9 15 4 0 8 5 8 11 0 5 -4 8
-8 5 -5 -3 -9 1 -9 9 0 8 4 12 9 9 4 -3 8 -1 8 5 0 5 -5 13 -10 16 -7 4 -7 12
0 25 13 25 13 33 -2 24 -7 -5 -8 -3 -3 6 4 6 9 29 12 49 2 20 7 43 10 51 6 15
13 54 15 78 1 6 7 12 15 12 7 0 13 5 13 11 0 5 -4 7 -10 4 -17 -10 46 131 83
188 22 32 42 35 44 6 2 -17 -1 -18 -13 -8 -8 6 -17 9 -21 5 -3 -3 -1 -6 6 -6
7 0 10 -4 7 -9 -4 -5 2 -8 11 -7 23 4 26 44 4 56 -9 4 -12 12 -8 16 4 4 13 2
19 -4 7 -7 19 -12 27 -11 10 0 7 4 -6 9 -27 11 -29 25 -5 39 9 6 13 11 8 11
-12 0 69 80 82 80 6 0 14 5 18 12 5 8 2 9 -11 4 -15 -5 -16 -4 -6 8 12 15 55
10 45 -5 -3 -5 2 -12 10 -15 9 -3 13 -10 10 -15 -3 -5 0 -9 5 -9 16 0 13 20
-4 26 -8 4 -13 10 -10 14 3 5 -2 13 -11 18 -15 8 -14 11 5 24 11 8 19 17 16
20 -3 3 1 11 10 18 13 11 14 10 9 -5 -5 -13 -4 -16 4 -11 7 4 12 13 12 20 0
17 35 48 44 39 4 -4 4 0 0 10 -3 10 -1 17 5 17 10 0 15 -13 12 -32 0 -4 8 -12
19 -18 14 -7 20 -7 20 0 0 5 -8 10 -17 10 -9 0 -13 3 -10 6 3 4 2 15 -3 24 -8
14 -3 24 24 48 19 17 33 32 30 35 -2 2 2 10 11 17 13 11 14 10 9 -5 -5 -13 -4
-16 4 -11 7 4 12 13 12 20 0 18 35 48 45 39 4 -5 5 0 2 9 -3 9 1 22 9 29 12
10 13 9 8 -5 -12 -30 5 -16 21 18 10 21 22 33 30 30 7 -3 16 0 21 7 5 8 3 10
-7 4 -12 -7 -12 -6 -1 7 8 9 21 14 30 11 14 -4 15 -3 2 6 -8 5 -12 13 -9 16 9
8 40 -6 34 -15 -3 -5 3 -13 12 -19 16 -9 16 -12 3 -21 -9 -6 -10 -10 -3 -10
22 0 26 23 8 37 -11 7 -15 13 -9 13 5 0 1 7 -8 14 -16 12 -12 18 41 69 33 30
57 58 55 60 -3 2 2 10 11 17 13 11 14 10 9 -5 -5 -13 -4 -16 4 -11 7 4 12 13
12 20 0 18 35 48 45 39 4 -5 5 0 2 9 -3 9 1 22 9 29 12 10 13 9 8 -5 -3 -9 -3
-16 0 -16 4 0 11 12 16 26 7 17 15 24 25 20 8 -3 15 -1 15 4 0 6 -5 10 -11 10
-5 0 -7 5 -3 12 5 7 11 5 21 -8 13 -18 14 -17 9 11 -4 17 -3 24 0 18 7 -17 25
-17 19 0 -3 6 4 23 15 37 15 18 18 20 13 6 -4 -13 -3 -17 5 -12 7 4 12 13 12
20 0 7 16 29 37 49 33 34 37 35 49 19 7 -9 14 -12 14 -7 0 6 9 -3 20 -20 11
-16 20 -26 20 -22 0 15 -32 57 -40 52 -9 -6 -23 25 -15 34 3 3 11 -1 16 -9 9
-13 10 -13 6 1 -6 17 50 79 70 79 7 0 15 5 19 12 5 8 2 9 -11 4 -15 -5 -16 -4
-6 8 12 15 55 10 45 -5 -3 -5 2 -12 10 -15 9 -3 14 -10 11 -14 -3 -5 -1 -11 4
-14 5 -4 8 1 7 10 -1 8 -9 20 -17 25 -8 5 -9 9 -4 9 6 0 2 7 -8 14 -17 13 -17
15 2 28 12 8 19 17 16 20 -3 3 1 11 10 18 13 11 14 10 9 -5 -5 -13 -4 -16 4
-11 7 4 12 13 12 20 0 17 35 48 44 39 4 -4 4 0 0 10 -3 10 -1 17 5 17 10 0 15
-14 12 -33 -1 -4 10 -12 24 -19 13 -6 22 -15 18 -21 -3 -6 -1 -7 5 -4 12 8 10
32 -3 44 -4 4 -5 2 -1 -4 4 -7 4 -13 -1 -13 -13 0 -28 14 -30 28 -2 6 -4 17
-5 24 -2 6 7 17 20 23 31 16 42 30 17 21 -16 -5 -15 -2 5 14 14 11 31 18 38
15 6 -2 12 0 12 4 0 5 -6 12 -12 14 -7 3 -2 6 12 6 18 1 21 4 11 10 -11 7 -10
10 5 15 11 3 27 18 36 33 l16 27 -164 164 c-90 90 -161 169 -157 175 3 5 1 7
-4 4 -14 -9 -105 81 -97 95 4 6 2 8 -4 4 -11 -7 -114 89 -104 98 3 3 0 6 -7 6
-18 0 -62 51 -54 63 3 6 1 7 -5 3 -12 -7 -104 79 -94 88 3 4 1 6 -5 6 -18 0
-213 201 -206 212 3 6 1 8 -5 4 -11 -7 -114 89 -104 98 3 3 1 6 -5 6 -15 0
-133 118 -133 132 0 6 -3 9 -6 5 -8 -7 -34 17 -34 32 0 6 -5 11 -11 11 -17 0
-41 29 -33 41 4 7 3 9 -3 6 -10 -6 -93 64 -93 79 0 5 -11 18 -25 28 -14 10
-25 24 -25 31 0 7 -7 16 -16 19 -9 4 -14 13 -10 22 3 8 2 12 -4 9 -8 -5 -34
30 -35 48 0 4 -6 12 -14 16 -8 5 -10 14 -6 21 5 8 4 11 -2 7 -11 -7 -47 69
-46 96 1 9 -3 17 -9 17 -5 0 -7 7 -4 16 4 10 2 13 -6 8 -7 -5 -9 -2 -5 9 3 9
2 17 -2 19 -4 2 -11 15 -14 30 -7 26 3 32 28 16 6 -4 11 2 11 12 0 14 -4 16
-16 10 -9 -5 -22 -5 -31 1 -12 7 -12 9 1 9 13 0 13 1 0 10 -8 5 -12 10 -8 10
4 0 3 12 -3 27 -7 20 -6 28 3 35 8 5 9 8 2 8 -7 0 -14 9 -17 20 -3 11 -1 18 4
14 5 -3 9 0 9 5 0 6 -3 11 -7 11 -5 0 -8 23 -8 50 -1 28 4 50 9 50 6 0 5 5 -2
12 -7 7 -8 17 -1 30 5 10 7 18 5 18 -3 0 -1 11 4 24 6 17 5 26 -3 29 -7 3 2 5
20 4 22 0 30 -4 26 -13 -3 -8 -1 -14 5 -14 21 0 5 35 -17 36 -12 1 -24 3 -26
6 -8 8 17 72 33 86 10 7 11 12 4 12 -7 0 -12 7 -12 16 0 8 4 13 8 10 4 -2 14
5 22 17 12 20 12 21 -3 8 -21 -16 -21 -13 -3 25 7 16 24 52 37 81 24 52 42 71
32 34 -3 -10 -1 -21 4 -24 5 -3 8 7 7 23 -1 16 7 45 17 65 10 19 15 34 10 33
-11 -4 -327 312 -323 324 1 5 -1 7 -6 4 -5 -3 -42 29 -82 69 -41 41 -77 75
-80 75 -4 0 -432 -426 -953 -947z"/>
<path d="M6266 8118 c3 -5 10 -6 15 -3 13 9 11 12 -6 12 -8 0 -12 -4 -9 -9z"/>
<path d="M7050 8024 c-179 -35 -323 -126 -427 -272 -24 -32 -94 -172 -87 -172
2 0 -1 -12 -7 -27 -15 -39 -23 -106 -22 -183 0 -56 3 -87 16 -160 7 -39 42
-119 82 -185 37 -62 45 -72 125 -153 36 -36 64 -69 63 -74 -2 -4 3 -8 10 -8
14 0 53 -41 49 -52 -1 -5 5 -8 13 -8 9 0 20 -10 25 -22 5 -13 9 -19 9 -14 1 5
18 -8 39 -30 20 -21 36 -42 35 -46 -2 -4 4 -8 13 -8 10 0 14 -5 10 -16 -3 -9
-2 -12 5 -9 13 8 41 -14 33 -26 -3 -5 0 -8 8 -7 7 2 12 -3 11 -9 -2 -7 4 -13
13 -13 10 0 14 -5 10 -16 -3 -9 -2 -12 5 -9 13 9 103 -81 94 -95 -3 -6 0 -7 9
-4 11 4 19 -2 25 -17 5 -13 10 -20 10 -15 1 5 18 -8 39 -30 20 -21 36 -42 34
-46 -1 -4 5 -8 14 -8 10 0 14 -6 11 -15 -4 -8 -1 -17 5 -21 7 -4 8 -3 4 4 -14
22 9 11 38 -18 15 -16 25 -33 21 -39 -3 -7 0 -8 9 -5 11 4 16 0 16 -10 0 -9 6
-15 13 -14 6 2 11 -3 9 -10 -1 -8 2 -11 7 -8 12 8 34 -20 26 -33 -3 -7 0 -8 9
-5 11 4 16 0 16 -10 0 -9 4 -15 8 -14 11 4 78 -63 74 -74 -1 -4 3 -8 9 -8 14
0 75 -61 71 -72 -1 -4 4 -8 11 -8 19 0 50 -37 42 -49 -3 -7 0 -8 9 -5 11 4 16
0 16 -10 0 -9 6 -15 13 -14 6 2 11 -3 9 -10 -1 -8 2 -11 7 -8 12 8 34 -20 26
-33 -3 -7 0 -8 9 -5 11 4 16 0 16 -10 0 -9 4 -15 8 -14 11 4 78 -63 74 -74 -1
-4 2 -8 8 -8 17 0 60 -43 53 -53 -3 -6 -2 -7 4 -4 10 7 53 -36 53 -53 0 -6 4
-9 8 -8 13 5 84 -70 77 -81 -4 -7 0 -8 11 -4 13 5 16 3 11 -10 -3 -9 -1 -19 5
-23 7 -4 8 -3 4 4 -4 7 -3 12 1 12 10 0 38 -31 40 -45 1 -5 10 -12 20 -16 14
-6 -132 -158 -754 -780 -425 -426 -784 -790 -799 -809 -37 -49 -99 -185 -114
-250 -44 -185 10 -411 134 -563 25 -30 42 -58 38 -62 -4 -4 -2 -5 3 -3 14 4
86 -52 79 -63 -3 -5 3 -6 12 -2 13 5 15 3 9 -7 -6 -9 -4 -11 5 -5 8 5 18 2 26
-9 7 -10 16 -18 21 -18 28 -3 63 -22 63 -36 0 -13 2 -14 8 -4 9 13 42 7 42 -8
0 -5 10 -6 22 -2 13 3 19 1 15 -5 -4 -6 -1 -11 6 -10 62 2 107 -4 101 -15 -5
-7 -3 -8 7 -2 8 4 20 9 27 10 10 2 11 -1 1 -12 -10 -12 -9 -13 7 -8 10 4 23 9
29 12 5 3 30 7 56 8 25 1 56 5 69 9 15 5 20 4 16 -4 -4 -6 -2 -19 4 -28 10
-16 10 -16 6 2 -3 11 -1 27 4 35 5 8 10 12 10 8 0 -4 16 0 35 8 32 13 34 13
29 -3 -3 -10 1 -7 9 7 9 14 18 24 21 23 10 -4 40 9 65 29 13 10 28 15 35 11 6
-4 20 -9 31 -10 16 -2 17 -1 5 6 -8 5 -18 7 -22 5 -14 -9 -9 7 7 22 14 14 19
11 16 -9 0 -4 4 -7 10 -7 6 0 8 7 5 16 -7 17 9 44 26 44 5 0 8 -8 6 -18 -2
-12 4 -18 22 -19 21 -2 22 -1 5 5 -32 11 -24 49 18 87 37 34 80 47 74 24 -1
-6 5 -14 13 -16 12 -4 12 -3 2 5 -8 5 -13 13 -12 18 1 4 -6 11 -14 14 -14 5
-14 7 2 21 10 9 25 13 33 10 16 -7 19 -32 4 -44 -6 -5 -4 -7 4 -5 19 5 21 47
3 57 -12 7 -12 11 5 28 10 10 25 17 33 15 9 -3 11 1 7 11 -7 18 28 54 38 38 8
-14 35 -14 35 -1 0 5 -7 7 -15 3 -10 -3 -15 -1 -13 7 5 21 37 50 56 50 14 0
15 2 2 10 -13 8 -12 10 3 10 11 0 15 4 11 12 -5 8 -2 9 10 5 11 -4 15 -3 11 4
-7 11 22 49 36 49 5 0 6 -8 3 -17 -5 -16 -4 -16 6 0 7 10 10 21 7 24 -3 2 4
14 15 25 19 19 20 19 33 1 16 -21 20 -10 5 16 -7 14 -5 23 9 35 17 16 19 16
24 -5 3 -11 10 -18 15 -15 6 3 13 1 15 -4 3 -6 4 -5 3 2 -2 7 -9 12 -15 11
-18 -5 -12 36 8 56 11 11 29 19 40 18 27 -2 28 -32 2 -34 -14 -1 -18 3 -14 15
4 14 3 14 -5 2 -14 -19 -6 -30 21 -26 16 2 22 10 22 27 0 13 -6 25 -12 25 -24
3 -24 4 -9 19 17 17 57 20 53 4 -1 -6 5 -14 13 -16 12 -4 12 -3 2 5 -8 5 -13
13 -12 18 1 4 -6 11 -14 14 -14 5 -14 7 2 21 10 9 25 13 33 10 16 -7 19 -32 4
-44 -6 -5 -4 -7 4 -5 19 5 21 47 3 57 -12 7 -12 11 5 28 10 10 25 17 33 15 8
-3 11 1 8 10 -6 16 91 118 112 118 6 0 9 -4 6 -9 -6 -9 35 -41 51 -41 4 0 -5
9 -22 20 -16 11 -26 20 -21 20 5 0 3 6 -3 14 -8 10 -8 16 2 25 8 6 17 8 20 4
4 -3 7 1 7 11 0 19 38 20 53 1 5 -6 7 -4 4 5 -2 8 -9 16 -15 16 -23 3 -23 4
-8 19 17 17 57 20 53 4 -1 -6 5 -14 13 -16 12 -4 12 -3 2 5 -8 5 -13 13 -12
18 1 4 -6 11 -14 14 -14 5 -14 7 2 21 10 9 25 13 33 10 16 -7 19 -32 4 -44 -6
-5 -4 -7 4 -5 19 5 21 47 3 57 -12 7 -12 11 5 28 10 10 25 17 33 15 8 -3 11 1
8 10 -6 16 91 118 112 118 6 0 9 -4 6 -9 -6 -9 35 -41 51 -41 4 0 -5 9 -22 20
-16 11 -26 20 -21 20 5 0 3 6 -3 14 -9 10 -7 17 5 27 10 8 19 13 21 12 1 -2 3
0 4 5 1 10 31 42 39 42 4 0 7 -8 6 -17 0 -10 5 -17 12 -16 6 2 12 -4 12 -12 0
-8 5 -15 10 -15 7 0 7 7 0 20 -6 11 -15 18 -21 15 -5 -4 -9 -2 -9 3 0 17 13
22 29 9 14 -11 14 -10 2 5 -7 10 -17 15 -22 12 -18 -11 -8 6 21 36 16 16 35
30 41 30 7 0 9 3 6 7 -8 7 41 63 55 63 4 0 5 -8 2 -17 -5 -16 -4 -16 6 0 7 10
10 21 7 24 -3 2 4 14 15 25 19 19 20 19 33 1 16 -21 20 -10 5 16 -7 14 -5 23
9 35 17 16 19 16 24 -5 3 -11 10 -18 15 -15 6 3 13 1 15 -4 3 -6 4 -5 3 2 -2
7 -9 12 -15 11 -18 -5 -12 36 8 56 11 11 29 19 40 18 27 -2 28 -32 2 -34 -14
-1 -18 3 -14 15 4 14 3 14 -5 2 -14 -19 -6 -30 21 -26 16 2 22 10 22 27 0 13
-6 25 -12 25 -24 3 -24 4 -9 19 17 17 57 20 53 4 -1 -6 5 -14 13 -16 12 -4 12
-3 2 5 -8 5 -13 13 -12 18 1 4 -6 11 -14 14 -14 5 -14 7 2 21 10 9 25 13 33
10 16 -7 19 -32 4 -44 -6 -5 -4 -7 4 -5 19 5 21 47 3 57 -12 7 -12 11 5 28 10
10 25 17 33 15 8 -3 11 1 8 10 -6 16 91 118 112 118 6 0 9 -4 6 -9 -6 -9 35
-41 51 -41 4 0 -5 9 -22 20 -16 11 -26 20 -21 20 5 0 3 6 -3 14 -11 13 1 33
22 35 4 1 7 4 8 9 1 10 31 42 39 42 4 0 7 -8 6 -17 0 -10 5 -17 12 -16 6 2 12
-4 12 -12 0 -8 5 -15 10 -15 7 0 7 7 0 20 -6 11 -15 18 -21 15 -5 -4 -9 -2 -9
3 0 17 13 22 29 9 14 -11 14 -10 2 5 -7 10 -17 15 -22 12 -18 -11 -8 6 21 36
16 16 34 30 40 30 6 0 9 4 6 9 -5 7 77 91 89 91 2 0 5 -6 8 -12 2 -7 2 -3 0 9
-2 13 4 26 14 32 10 6 14 11 10 11 -5 0 9 23 31 50 23 28 44 64 47 80 4 17 11
30 17 30 6 0 8 3 5 7 -4 3 -2 11 3 18 5 6 11 20 13 31 1 10 6 25 10 32 5 6 5
17 2 22 -3 6 -2 10 2 10 5 0 9 15 10 33 1 54 7 77 18 77 6 0 6 3 -1 8 -6 4
-11 21 -10 37 1 17 -3 36 -8 43 -5 8 -4 12 4 12 9 0 9 4 3 13 -16 19 -26 100
-12 91 8 -4 9 -3 5 5 -4 6 -12 9 -17 6 -5 -4 -9 0 -9 9 0 8 -3 22 -7 32 -5 13
-3 15 8 10 8 -5 8 -2 -2 6 -22 18 -51 77 -44 89 4 5 1 8 -7 7 -7 -2 -12 5 -12
14 1 10 -3 15 -9 11 -6 -4 -8 0 -4 10 4 11 2 14 -9 10 -8 -3 -14 1 -14 9 0 7
-20 33 -44 58 -24 25 -42 48 -39 53 2 4 -1 6 -9 5 -7 -2 -12 3 -10 10 1 6 -4
11 -10 10 -7 -2 -12 3 -10 10 1 6 -4 11 -10 10 -7 -2 -12 3 -10 10 1 6 -4 12
-11 12 -14 0 -73 60 -69 72 1 4 -3 8 -10 8 -15 0 -268 254 -268 269 0 7 -4 10
-8 7 -10 -6 -58 45 -54 57 1 4 -4 6 -10 5 -7 -2 -12 3 -10 10 1 6 -4 11 -10
10 -7 -2 -12 3 -10 10 1 6 -4 11 -10 10 -7 -2 -12 3 -10 10 1 6 -3 12 -9 12
-17 0 -99 82 -93 92 3 5 0 7 -8 6 -7 -2 -12 3 -10 10 1 6 -4 11 -10 10 -7 -2
-12 3 -10 10 1 6 -4 11 -10 10 -7 -2 -12 3 -10 10 1 6 -4 12 -11 12 -14 0 -73
60 -69 72 1 4 -3 8 -10 8 -15 0 -268 254 -268 269 0 7 -4 10 -8 7 -10 -6 -58
45 -54 57 1 4 -4 6 -10 5 -7 -2 -12 3 -10 10 1 6 -4 11 -10 10 -7 -2 -12 3
-11 9 2 7 -3 12 -10 10 -6 -1 -11 4 -10 11 2 6 -2 12 -8 12 -16 0 -109 92
-109 107 0 7 -6 12 -12 10 -7 -1 -12 4 -11 10 2 7 -3 12 -10 10 -6 -1 -11 4
-10 10 2 7 -3 12 -10 10 -6 -1 -11 4 -10 10 2 7 0 12 -5 11 -11 -4 -92 75 -92
89 0 7 -6 12 -12 10 -7 -1 -12 4 -11 10 2 7 -3 12 -10 10 -6 -1 -11 4 -10 10
2 7 -3 12 -10 10 -6 -1 -11 4 -10 10 2 7 0 12 -5 11 -11 -4 -62 44 -56 54 3 4
-1 8 -8 8 -15 0 -154 141 -150 152 1 4 -4 8 -11 8 -18 0 -71 56 -63 68 3 5 -2
9 -12 8 -9 0 -16 5 -14 12 1 8 -1 11 -6 8 -4 -2 -41 29 -82 70 -41 41 -98 90
-125 108 -137 92 -327 131 -485 100z"/>
<path d="M1855 7962 c-338 -23 -600 -301 -603 -637 0 -80 8 -126 41 -240 2 -5
9 -20 15 -32 7 -13 9 -23 5 -23 -4 0 -3 -4 2 -8 20 -14 46 -63 39 -74 -4 -6
-3 -8 3 -5 6 4 18 -4 26 -17 9 -13 84 -92 167 -175 83 -84 148 -156 145 -161
-3 -6 1 -7 9 -4 16 6 40 -28 28 -41 -4 -5 -1 -5 6 -1 16 9 85 -60 76 -76 -4
-7 -3 -8 4 -4 15 9 125 -101 116 -116 -4 -7 -2 -8 5 -4 14 9 84 -61 76 -75 -4
-5 1 -6 9 -3 11 4 19 -2 25 -17 5 -13 10 -21 10 -16 1 4 19 -11 41 -33 23 -23
38 -46 34 -52 -4 -7 -3 -8 4 -4 14 8 126 -100 117 -113 -2 -5 3 -8 13 -7 10 0
17 -6 16 -16 -1 -11 4 -14 14 -10 11 4 14 1 9 -12 -4 -10 -3 -15 3 -11 13 8
112 -93 104 -107 -4 -7 -3 -8 5 -4 14 9 84 -61 76 -75 -4 -5 1 -6 9 -3 11 4
19 -2 25 -17 5 -13 10 -21 10 -17 1 4 13 -4 27 -17 15 -14 23 -29 18 -36 -4
-7 -3 -9 4 -5 15 9 125 -101 116 -116 -4 -7 -3 -8 4 -4 6 4 29 -11 52 -34 22
-22 37 -40 33 -41 -5 0 3 -5 16 -10 15 -6 21 -14 17 -25 -3 -8 -2 -12 3 -9 12
7 61 -38 61 -55 0 -8 -335 -349 -745 -759 -410 -410 -757 -762 -771 -781 -83
-113 -124 -245 -119 -392 3 -115 6 -134 37 -216 21 -57 74 -152 91 -163 5 -4
6 -12 2 -19 -5 -8 -4 -11 2 -7 5 3 25 -11 44 -31 43 -45 114 -102 128 -102 6
0 11 -4 11 -10 0 -5 9 -10 20 -10 11 0 20 -4 20 -9 0 -5 14 -11 31 -15 17 -3
28 -10 25 -15 -3 -5 3 -7 15 -4 18 5 20 3 15 -18 -6 -21 -5 -22 4 -6 7 10 19
16 28 13 9 -3 30 -7 45 -10 16 -3 36 -11 45 -18 9 -7 13 -8 9 -2 -4 8 21 11
81 12 107 1 122 3 122 14 0 5 4 7 10 3 5 -3 25 1 45 9 19 8 35 13 35 10 0 -2
11 3 25 12 13 8 28 13 34 10 5 -3 11 -3 13 2 6 15 99 72 109 67 5 -3 6 1 3 10
-5 11 -2 14 12 9 11 -4 16 -4 12 1 -4 4 12 27 34 51 41 44 60 55 55 32 -1 -6
7 -13 18 -15 15 -2 16 -1 5 5 -26 12 -17 35 37 90 52 53 65 62 60 40 -1 -7 4
-13 12 -13 8 0 15 6 17 13 1 7 0 8 -3 2 -8 -16 -20 -12 -20 8 0 18 24 52 38
52 5 0 6 -7 3 -15 -4 -8 -10 -13 -14 -10 -5 3 -11 1 -14 -4 -4 -5 1 -8 10 -7
18 3 35 26 28 38 -9 13 32 49 48 43 19 -8 33 11 17 21 -8 4 -9 3 -5 -4 4 -7 2
-12 -3 -12 -6 0 -11 4 -11 8 0 13 65 72 80 72 7 0 11 3 7 6 -3 4 26 40 66 80
49 50 77 72 89 68 20 -6 33 12 17 22 -8 4 -9 3 -5 -4 4 -7 2 -12 -3 -12 -18 0
-12 15 15 41 23 21 25 21 16 3 -7 -13 -7 -25 -1 -35 8 -12 10 -12 7 1 -5 33
18 68 97 148 55 55 87 81 98 77 18 -8 32 11 16 21 -8 4 -9 3 -5 -4 4 -7 2 -12
-3 -12 -19 0 -12 15 22 48 21 20 40 30 49 27 19 -8 33 11 17 21 -8 4 -9 3 -5
-4 4 -7 2 -12 -3 -12 -18 0 -12 15 15 41 23 21 25 21 16 3 -7 -13 -7 -25 -1
-35 8 -12 10 -12 7 1 -4 27 14 65 48 98 36 34 45 39 41 20 -1 -7 4 -13 12 -13
8 0 15 6 17 13 1 7 0 8 -3 2 -8 -16 -20 -12 -20 8 0 18 24 52 38 52 5 0 6 -7
3 -15 -4 -8 -10 -13 -14 -10 -5 3 -11 1 -14 -4 -4 -5 1 -8 10 -7 18 3 35 26
28 38 -9 13 32 49 48 43 19 -8 33 11 17 21 -8 4 -9 3 -5 -4 4 -7 2 -12 -3 -12
-19 0 -12 15 23 49 22 21 41 31 50 28 16 -6 41 25 30 36 -11 11 33 48 48 42
19 -8 33 11 17 21 -8 4 -9 3 -5 -4 4 -7 2 -12 -3 -12 -6 0 -11 4 -11 8 0 13
65 72 80 72 7 0 11 3 7 6 -3 4 26 40 66 80 49 50 77 72 89 68 20 -6 33 12 17
22 -8 4 -9 3 -5 -4 4 -7 2 -12 -3 -12 -18 0 -12 15 15 41 23 21 25 21 16 3 -7
-13 -7 -25 -1 -35 8 -12 10 -12 7 1 -4 31 16 65 75 127 56 57 101 82 94 51 -1
-7 4 -13 12 -13 8 0 15 6 17 13 1 7 0 8 -3 2 -2 -5 -9 -10 -14 -10 -6 0 -7 5
-4 10 3 6 -1 13 -10 16 -12 5 -4 18 36 59 52 54 89 67 86 33 -1 -11 -7 -16
-15 -13 -7 2 -10 0 -7 -5 3 -6 1 -10 -6 -10 -7 0 -10 -3 -7 -6 4 -3 15 -1 26
5 21 11 25 58 4 54 -15 -4 -15 10 0 25 16 16 49 15 45 0 -1 -7 4 -13 12 -13 8
0 15 6 17 13 1 7 0 8 -3 2 -2 -5 -9 -10 -14 -10 -6 0 -8 4 -4 9 3 6 -1 14 -10
18 -11 7 -3 20 43 63 31 30 56 58 54 63 -1 4 3 7 8 7 6 0 10 5 10 11 0 6 6 17
13 24 26 30 33 41 46 75 15 37 39 70 28 37 -4 -11 -3 -16 3 -12 14 9 12 35 -2
36 -7 1 1 5 17 9 24 6 26 8 8 9 -25 1 -30 15 -11 28 7 4 14 22 14 38 3 46 3
47 16 39 8 -5 8 -3 2 7 -11 17 -13 80 -2 73 4 -3 8 0 8 5 0 6 -4 11 -9 11 -4
0 -8 17 -8 38 0 64 -8 132 -14 132 -7 0 -23 57 -22 78 0 6 -4 12 -9 12 -6 0
-7 7 -4 16 3 8 2 13 -3 10 -9 -6 -36 49 -30 58 2 3 -6 13 -18 21 -13 9 -23 25
-23 36 0 10 -3 18 -8 16 -4 -1 -8 0 -9 3 -1 3 -108 110 -237 239 -129 129
-232 239 -229 244 3 6 1 7 -4 4 -13 -8 -36 17 -25 28 4 5 2 5 -4 2 -13 -8
-487 466 -477 478 4 4 3 5 -3 2 -12 -7 -328 305 -319 316 3 4 2 5 -2 2 -10 -8
-163 147 -156 158 3 6 2 7 -4 4 -13 -8 -376 357 -366 368 4 4 3 5 -3 2 -15 -8
-120 102 -116 122 2 11 0 12 -5 4 -6 -8 -20 -1 -48 23 -22 20 -53 42 -70 51
-16 9 -32 19 -35 23 -6 10 -73 38 -130 56 -55 16 -171 30 -225 26z m1689
-3767 c-4 -8 -10 -12 -15 -9 -11 6 -2 24 11 24 5 0 7 -7 4 -15z"/>
<path d="M6433 7955 c0 -8 4 -12 9 -9 5 3 6 10 3 15 -9 13 -12 11 -12 -6z"/>
<path d="M6446 7862 c-3 -5 1 -9 9 -9 8 0 12 4 9 9 -3 4 -7 8 -9 8 -2 0 -6 -4
-9 -8z"/>
<path d="M6394 7838 c-4 -7 -4 -10 1 -6 4 4 15 2 24 -5 14 -11 14 -10 2 6 -16
20 -18 21 -27 5z"/>
<path d="M6355 7799 c-4 -6 -5 -12 -2 -15 2 -3 7 2 10 11 7 17 1 20 -8 4z"/>
<path d="M6376 7792 c-3 -5 4 -16 15 -25 10 -9 19 -12 19 -7 0 6 -7 13 -15 16
-8 4 -12 10 -9 15 3 5 3 9 0 9 -3 0 -7 -4 -10 -8z"/>
<path d="M6473 7765 c0 -8 4 -12 9 -9 5 3 6 10 3 15 -9 13 -12 11 -12 -6z"/>
<path d="M6330 7760 c0 -5 5 -10 10 -10 6 0 10 5 10 10 0 6 -4 10 -10 10 -5 0
-10 -4 -10 -10z"/>
<path d="M6374 7739 c-4 -7 -3 -9 4 -5 5 3 13 0 15 -6 4 -9 6 -10 6 -1 1 17
-16 25 -25 12z"/>
<path d="M6420 7746 c0 -2 8 -10 18 -17 15 -13 16 -12 3 4 -13 16 -21 21 -21
13z"/>
<path d="M6351 7730 c0 -8 4 -22 9 -30 12 -18 12 -2 0 25 -6 13 -9 15 -9 5z"/>
<path d="M6333 7703 c4 -6 2 -13 -5 -15 -8 -3 -6 -6 4 -10 17 -7 19 15 3 29
-4 4 -5 3 -2 -4z"/>
<path d="M6360 7671 c0 -6 4 -13 10 -16 6 -3 7 1 4 9 -7 18 -14 21 -14 7z"/>
<path d="M6310 7660 c0 -5 5 -10 10 -10 6 0 10 5 10 10 0 6 -4 10 -10 10 -5 0
-10 -4 -10 -10z"/>
<path d="M6340 7639 c0 -5 5 -7 10 -4 6 3 10 8 10 11 0 2 -4 4 -10 4 -5 0 -10
-5 -10 -11z"/>
<path d="M6316 7627 c3 -10 9 -15 12 -12 3 3 0 11 -7 18 -10 9 -11 8 -5 -6z"/>
<path d="M6284 7619 c-5 -8 -3 -9 5 -4 9 5 12 0 9 -15 -2 -13 3 -24 10 -26 7
-1 8 0 3 2 -5 3 -7 13 -4 23 6 22 -12 37 -23 20z"/>
<path d="M6387 7619 c7 -7 15 -10 18 -7 3 3 -2 9 -12 12 -14 6 -15 5 -6 -5z"/>
<path d="M6357 7603 c-2 -5 -3 -17 -1 -28 1 -10 -2 -26 -9 -35 -9 -13 -9 -13
3 -2 8 7 15 26 16 42 0 31 -2 36 -9 23z"/>
<path d="M6268 7563 c7 -3 16 -2 19 1 4 3 -2 6 -13 5 -11 0 -14 -3 -6 -6z"/>
<path d="M6275 7501 c3 -5 0 -11 -7 -13 -7 -3 -5 -7 6 -11 9 -4 15 -3 11 2 -3
5 0 11 7 13 7 3 5 7 -6 11 -9 4 -15 3 -11 -2z"/>
<path d="M6336 7493 c-6 -14 -5 -15 5 -6 7 7 10 15 7 18 -3 3 -9 -2 -12 -12z"/>
<path d="M6370 7500 c0 -5 5 -10 11 -10 5 0 7 5 4 10 -3 6 -8 10 -11 10 -2 0
-4 -4 -4 -10z"/>
<path d="M6255 7459 c-4 -6 -4 -13 -1 -16 3 -4 6 -1 6 6 0 7 5 9 12 5 7 -4 8
-3 4 4 -9 15 -13 15 -21 1z"/>
<path d="M6310 7452 c9 -19 30 -23 30 -5 0 4 -3 3 -7 0 -3 -4 -12 1 -20 11
-13 15 -13 15 -3 -6z"/>
<path d="M6281 7436 c-9 -11 -9 -16 0 -22 8 -5 9 -3 4 6 -6 10 -4 12 8 7 11
-4 14 -2 10 9 -6 17 -8 17 -22 0z"/>
<path d="M6350 7421 c0 -6 4 -13 10 -16 6 -3 7 1 4 9 -7 18 -14 21 -14 7z"/>
<path d="M6245 7400 c-3 -6 1 -7 9 -4 18 7 21 14 7 14 -6 0 -13 -4 -16 -10z"/>
<path d="M6304 7402 c4 -3 14 -7 22 -8 9 -1 13 0 10 4 -4 3 -14 7 -22 8 -9 1
-13 0 -10 -4z"/>
<path d="M6257 7383 c-3 -5 5 -8 18 -8 13 0 21 3 18 8 -2 4 -10 7 -18 7 -8 0
-16 -3 -18 -7z"/>
<path d="M6290 7331 c0 -7 -5 -9 -12 -5 -7 5 -8 3 -3 -5 5 -9 10 -10 18 -2 6
6 8 14 4 18 -4 3 -7 1 -7 -6z"/>
<path d="M6305 7300 c-3 -6 1 -7 9 -4 18 7 21 14 7 14 -6 0 -13 -4 -16 -10z"/>
<path d="M6260 7280 c8 -5 20 -10 25 -10 6 0 3 5 -5 10 -8 5 -19 10 -25 10 -5
0 -3 -5 5 -10z"/>
<path d="M6296 7255 c-4 -11 -13 -14 -28 -10 -21 5 -21 5 -4 -6 14 -9 21 -8
34 5 9 8 13 18 10 21 -3 3 -8 -1 -12 -10z"/>
<path d="M6296 7207 c3 -10 9 -15 12 -12 3 3 0 11 -7 18 -10 9 -11 8 -5 -6z"/>
<path d="M6311 7107 c-8 -10 -7 -14 2 -14 8 0 14 6 14 14 0 7 -1 13 -2 13 -2
0 -8 -6 -14 -13z"/>
<path d="M6355 7080 c3 -5 8 -10 11 -10 2 0 4 5 4 10 0 6 -5 10 -11 10 -5 0
-7 -4 -4 -10z"/>
<path d="M6340 7026 c0 -2 8 -10 18 -17 15 -13 16 -12 3 4 -13 16 -21 21 -21
13z"/>
<path d="M1555 6680 c3 -5 8 -10 11 -10 2 0 4 5 4 10 0 6 -5 10 -11 10 -5 0
-7 -4 -4 -10z"/>
<path d="M9756 5678 c3 -5 10 -6 15 -3 13 9 11 12 -6 12 -8 0 -12 -4 -9 -9z"/>
<path d="M9826 5538 c3 -4 9 -8 15 -8 5 0 9 4 9 8 0 5 -7 9 -15 9 -8 0 -12 -4
-9 -9z"/>
<path d="M4500 5526 c0 -2 8 -10 18 -17 15 -13 16 -12 3 4 -13 16 -21 21 -21
13z"/>
<path d="M9910 5526 c0 -2 7 -7 16 -10 8 -3 12 -2 9 4 -6 10 -25 14 -25 6z"/>
<path d="M4471 5507 c-8 -10 -7 -14 2 -14 8 0 14 6 14 14 0 7 -1 13 -2 13 -2
0 -8 -6 -14 -13z"/>
<path d="M9833 5505 c0 -8 4 -12 9 -9 5 3 6 10 3 15 -9 13 -12 11 -12 -6z"/>
<path d="M4474 5442 c4 -3 14 -7 22 -8 9 -1 13 0 10 4 -4 3 -14 7 -22 8 -9 1
-13 0 -10 -4z"/>
<path d="M9816 5434 c-3 -7 0 -16 6 -20 7 -4 8 -3 4 4 -7 11 7 17 29 12 6 -1
6 2 2 6 -13 14 -35 13 -41 -2z"/>
<path d="M4466 5417 c3 -10 9 -15 12 -12 3 3 0 11 -7 18 -10 9 -11 8 -5 -6z"/>
<path d="M4530 5420 c0 -5 5 -10 11 -10 5 0 7 5 4 10 -3 6 -8 10 -11 10 -2 0
-4 -4 -4 -10z"/>
<path d="M4496 5407 c3 -10 9 -15 12 -12 3 3 0 11 -7 18 -10 9 -11 8 -5 -6z"/>
<path d="M9895 5389 c-4 -6 -5 -12 -2 -15 2 -3 7 2 10 11 7 17 1 20 -8 4z"/>
<path d="M4488 5366 c-22 -16 -22 -22 -4 -29 11 -4 13 -1 9 10 -4 10 -2 14 4
10 5 -3 10 0 10 8 0 8 -1 15 -1 15 -1 0 -9 -7 -18 -14z"/>
<path d="M4533 5365 c0 -8 4 -12 9 -9 5 3 6 10 3 15 -9 13 -12 11 -12 -6z"/>
<path d="M7808 5328 c-10 -10 -14 -18 -9 -18 10 0 36 29 30 34 -2 1 -12 -6
-21 -16z"/>
<path d="M9836 5334 c-20 -19 -20 -21 -1 -21 8 0 13 3 10 5 -3 3 0 11 6 19 16
18 4 16 -15 -3z"/>
<path d="M4472 5314 c10 -10 20 -16 22 -13 3 3 -5 11 -17 18 -21 13 -21 12 -5
-5z"/>
<path d="M7826 5302 c-3 -5 1 -9 9 -9 8 0 12 4 9 9 -3 4 -7 8 -9 8 -2 0 -6 -4
-9 -8z"/>
<path d="M9855 5290 c-3 -5 -12 -7 -19 -4 -8 3 -17 1 -21 -5 -3 -7 0 -8 10 -5
11 5 14 2 9 -10 -4 -10 -1 -16 7 -16 7 0 9 3 6 7 -4 3 0 15 10 25 9 10 13 18
10 18 -3 0 -8 -4 -12 -10z"/>
<path d="M7720 5280 c0 -5 5 -10 11 -10 5 0 7 5 4 10 -3 6 -8 10 -11 10 -2 0
-4 -4 -4 -10z"/>
<path d="M7766 5275 c4 -8 8 -15 10 -15 2 0 4 7 4 15 0 8 -4 15 -10 15 -5 0
-7 -7 -4 -15z"/>
<path d="M7753 5240 c0 -23 3 -28 9 -16 5 9 5 23 0 32 -6 12 -9 7 -9 -16z"/>
<path d="M7850 5259 c0 -5 5 -7 10 -4 6 3 10 8 10 11 0 2 -4 4 -10 4 -5 0 -10
-5 -10 -11z"/>
<path d="M9865 5260 c-3 -6 1 -7 9 -4 18 7 21 14 7 14 -6 0 -13 -4 -16 -10z"/>
<path d="M4468 5242 c8 -5 13 -13 12 -18 -1 -5 4 -10 12 -12 11 -3 11 -2 0 6
-8 5 -13 13 -12 18 1 5 -4 10 -12 12 -11 3 -11 2 0 -6z"/>
<path d="M7701 5240 c-9 -5 -4 -7 13 -7 29 0 32 2 13 10 -8 3 -20 2 -26 -3z"/>
<path d="M9808 5233 c6 -2 9 -10 6 -15 -4 -7 -2 -8 5 -4 13 9 5 26 -12 25 -9
0 -8 -2 1 -6z"/>
<path d="M9893 5209 c-2 -23 3 -25 10 -4 4 8 3 16 -1 19 -4 3 -9 -4 -9 -15z"/>
<path d="M7675 5210 c3 -5 8 -10 11 -10 2 0 4 5 4 10 0 6 -5 10 -11 10 -5 0
-7 -4 -4 -10z"/>
<path d="M7710 5205 c0 -8 4 -15 10 -15 5 0 7 7 4 15 -4 8 -8 15 -10 15 -2 0
-4 -7 -4 -15z"/>
<path d="M7773 5206 c0 -15 22 -15 34 0 4 5 4 6 -1 2 -5 -4 -14 -3 -21 2 -8 7
-12 5 -12 -4z"/>
<path d="M9790 5211 c0 -6 4 -13 10 -16 6 -3 7 1 4 9 -7 18 -14 21 -14 7z"/>
<path d="M9829 5203 c-13 -16 -12 -17 4 -4 9 7 17 15 17 17 0 8 -8 3 -21 -13z"/>
<path d="M4466 5195 c10 -8 23 -15 28 -15 6 0 1 7 -10 15 -10 8 -23 15 -28 15
-6 0 -1 -7 10 -15z"/>
<path d="M9788 5178 c5 -5 16 -8 23 -6 8 3 3 7 -10 11 -17 4 -21 3 -13 -5z"/>
<path d="M7613 5160 c1 -14 6 -23 11 -22 5 2 13 -2 18 -10 8 -11 9 -11 6 0 -2
8 -8 13 -13 12 -6 -1 -13 9 -17 22 -7 22 -7 22 -5 -2z"/>
<path d="M7642 5164 c10 -10 20 -16 22 -13 3 3 -5 11 -17 18 -21 13 -21 12 -5
-5z"/>
<path d="M4450 5159 c0 -5 5 -7 10 -4 6 3 10 8 10 11 0 2 -4 4 -10 4 -5 0 -10
-5 -10 -11z"/>
<path d="M4480 5166 c0 -2 8 -10 18 -17 15 -13 16 -12 3 4 -13 16 -21 21 -21
13z"/>
<path d="M7735 5159 c-3 -4 2 -6 10 -5 21 3 28 13 10 13 -9 0 -18 -4 -20 -8z"/>
<path d="M4470 5141 c0 -6 4 -13 10 -16 6 -3 7 1 4 9 -7 18 -14 21 -14 7z"/>
<path d="M7770 5140 c0 -5 5 -10 11 -10 5 0 7 5 4 10 -3 6 -8 10 -11 10 -2 0
-4 -4 -4 -10z"/>
<path d="M9773 5133 c-3 -7 -9 -10 -14 -7 -5 3 -9 0 -9 -5 0 -16 20 -13 26 4
4 8 10 13 14 10 5 -3 11 -2 14 3 3 5 -2 9 -10 9 -9 0 -18 -6 -21 -14z"/>
<path d="M9820 5146 c0 -2 9 -6 20 -9 11 -3 18 -1 14 4 -5 9 -34 13 -34 5z"/>
<path d="M4426 5121 c-3 -5 1 -11 9 -14 9 -4 12 -1 8 9 -6 16 -10 17 -17 5z"/>
<path d="M7671 5118 c-12 -4 -21 -10 -21 -13 0 -4 4 -4 8 -1 5 3 21 7 36 10
16 3 31 7 33 10 8 7 -33 3 -56 -6z"/>
<path d="M7574 5109 c3 -15 36 -21 36 -7 0 6 -6 8 -14 5 -8 -3 -17 -2 -20 4
-2 5 -3 4 -2 -2z"/>
<path d="M4395 5100 c-3 -5 -1 -10 4 -10 6 0 11 5 11 10 0 6 -2 10 -4 10 -3 0
-8 -4 -11 -10z"/>
<path d="M7550 5101 c0 -10 29 -36 34 -30 1 2 -6 12 -16 22 -10 9 -18 13 -18
8z"/>
<path d="M7730 5100 c0 -5 5 -10 11 -10 5 0 7 5 4 10 -3 6 -8 10 -11 10 -2 0
-4 -4 -4 -10z"/>
<path d="M9790 5103 c0 -6 8 -17 18 -24 16 -13 16 -13 2 6 -8 11 -16 22 -17
24 -2 2 -3 0 -3 -6z"/>
<path d="M9826 5102 c-3 -5 1 -9 9 -9 8 0 12 4 9 9 -3 4 -7 8 -9 8 -2 0 -6 -4
-9 -8z"/>
<path d="M9736 5083 c-6 -14 -5 -15 5 -6 7 7 10 15 7 18 -3 3 -9 -2 -12 -12z"/>
<path d="M9762 5080 c-18 -29 -15 -38 4 -12 9 13 14 25 12 27 -2 2 -9 -5 -16
-15z"/>
<path d="M4450 5078 c0 -4 4 -8 9 -8 6 0 12 4 15 8 3 5 -1 9 -9 9 -8 0 -15 -4
-15 -9z"/>
<path d="M7633 5083 c4 -3 2 -11 -3 -18 -7 -8 -6 -12 3 -12 7 0 14 9 14 19 1
10 -3 18 -9 18 -6 0 -8 -3 -5 -7z"/>
<path d="M4395 5069 c-4 -6 -5 -12 -2 -15 2 -3 7 2 10 11 7 17 1 20 -8 4z"/>
<path d="M4413 5055 c-3 -9 -3 -18 -1 -21 3 -3 8 4 11 16 6 23 -1 27 -10 5z"/>
<path d="M7588 5053 c7 -3 16 -2 19 1 4 3 -2 6 -13 5 -11 0 -14 -3 -6 -6z"/>
<path d="M9766 5043 c-6 -14 -5 -15 5 -6 7 7 10 15 7 18 -3 3 -9 -2 -12 -12z"/>
<path d="M4368 5033 c6 -9 17 -18 26 -19 9 -1 14 2 10 7 -3 5 -10 7 -15 4 -5
-4 -9 1 -9 9 0 9 -5 16 -10 16 -7 0 -8 -6 -2 -17z"/>
<path d="M7510 5040 c0 -5 10 -14 23 -20 20 -10 20 -10 5 3 -10 8 -15 17 -11
20 3 4 1 7 -5 7 -7 0 -12 -4 -12 -10z"/>
<path d="M9730 5043 c17 -8 11 -19 -10 -20 -13 -1 -18 2 -14 9 4 7 2 8 -5 4
-17 -11 -3 -26 22 -22 24 3 31 28 9 32 -7 1 -8 0 -2 -3z"/>
<path d="M9841 5036 c-9 -11 -9 -16 1 -22 7 -4 10 -4 6 1 -4 4 -3 14 3 22 6 7
9 13 6 13 -2 0 -10 -6 -16 -14z"/>
<path d="M4495 5020 c3 -5 8 -10 11 -10 2 0 4 5 4 10 0 6 -5 10 -11 10 -5 0
-7 -4 -4 -10z"/>
<path d="M7478 5023 c12 -2 20 -8 17 -13 -9 -14 16 -23 28 -11 9 9 8 11 -6 5
-12 -4 -17 -2 -15 7 2 8 -7 14 -22 15 -22 2 -22 2 -2 -3z"/>
<path d="M4337 5000 c-3 -11 1 -23 8 -28 8 -4 14 -11 14 -17 0 -5 4 -10 11
-11 6 -2 7 -1 0 3 -5 2 -8 9 -4 14 3 5 -1 12 -9 15 -9 3 -13 13 -10 25 3 10 3
19 0 19 -2 0 -7 -9 -10 -20z"/>
<path d="M4420 5016 c0 -2 7 -7 16 -10 8 -3 12 -2 9 4 -6 10 -25 14 -25 6z"/>
<path d="M9773 5003 c1 -17 4 -19 14 -11 15 12 18 22 4 14 -5 -4 -11 0 -14 6
-3 7 -4 3 -4 -9z"/>
<path d="M4367 4999 c7 -7 15 -10 18 -7 3 3 -2 9 -12 12 -14 6 -15 5 -6 -5z"/>
<path d="M7471 4993 c7 -12 15 -20 18 -17 3 2 -3 12 -13 22 -17 16 -18 16 -5
-5z"/>
<path d="M7573 4993 c0 -9 4 -10 14 -2 7 6 13 12 13 14 0 1 -6 2 -13 2 -8 0
-14 -6 -14 -14z"/>
<path d="M9670 4995 c-11 -13 -10 -14 4 -9 9 3 16 10 16 15 0 13 -6 11 -20 -6z"/>
<path d="M9705 4987 c-14 -11 -15 -16 -5 -22 9 -6 11 -4 5 5 -6 10 -4 12 9 7
11 -5 15 -3 10 5 -5 8 -2 9 10 5 10 -4 15 -3 11 3 -8 13 -18 13 -40 -3z"/>
<path d="M7440 4978 c-12 -8 -12 -9 2 -5 9 3 19 1 22 -6 3 -9 5 -9 5 0 1 18
-13 23 -29 11z"/>
<path d="M4312 4962 c-9 -6 -5 -12 15 -20 24 -11 26 -10 11 1 -10 8 -15 17
-11 20 9 9 1 8 -15 -1z"/>
<path d="M9673 4963 c4 -6 1 -13 -7 -16 -7 -3 -13 -16 -12 -29 1 -17 6 -22 21
-20 11 2 22 6 25 9 3 3 -5 4 -17 1 -17 -5 -21 -1 -20 13 1 11 7 19 14 19 16 0
17 16 1 26 -6 4 -8 3 -5 -3z"/>
<path d="M7506 4943 c-6 -14 -5 -15 5 -6 7 7 10 15 7 18 -3 3 -9 -2 -12 -12z"/>
<path d="M4277 4937 c-3 -8 -2 -20 3 -26 5 -9 8 -4 8 13 0 29 -3 32 -11 13z"/>
<path d="M7455 4939 c-4 -6 -5 -12 -2 -15 2 -3 7 2 10 11 7 17 1 20 -8 4z"/>
<path d="M7475 4931 c-3 -5 -2 -12 3 -15 5 -3 9 1 9 9 0 17 -3 19 -12 6z"/>
<path d="M9726 4931 c-17 -6 -17 -8 -4 -14 10 -3 19 0 22 9 3 8 4 14 3 13 -1
0 -11 -4 -21 -8z"/>
<path d="M4308 4923 c7 -3 16 -2 19 1 4 3 -2 6 -13 5 -11 0 -14 -3 -6 -6z"/>
<path d="M4359 4928 c-6 -20 -6 -39 0 -42 4 -3 7 6 7 20 0 20 -4 32 -7 22z"/>
<path d="M7388 4912 c9 -10 19 -17 21 -16 6 5 -20 34 -30 34 -5 0 -1 -8 9 -18z"/>
<path d="M4254 4912 c3 -5 0 -13 -6 -15 -9 -4 -10 -6 -1 -6 17 -1 25 16 12 25
-7 4 -9 3 -5 -4z"/>
<path d="M4387 4899 c7 -7 15 -10 18 -7 3 3 -2 9 -12 12 -14 6 -15 5 -6 -5z"/>
<path d="M7340 4902 c0 -6 10 -8 22 -4 12 3 19 1 15 -4 -3 -6 -1 -16 4 -24 7
-11 8 -8 6 10 -3 17 -11 26 -25 28 -12 2 -22 -1 -22 -6z"/>
<path d="M9603 4903 c-7 -3 -13 -9 -13 -15 0 -6 7 -4 17 3 15 12 16 12 10 -3
-3 -10 -2 -18 3 -18 12 0 13 27 3 33 -5 2 -14 2 -20 0z"/>
<path d="M7417 4881 c-3 -15 -1 -18 11 -14 11 5 13 3 7 -7 -5 -9 -4 -11 4 -6
9 6 9 12 -1 24 -7 10 -13 18 -14 20 -1 1 -4 -6 -7 -17z"/>
<path d="M9739 4898 c-6 -20 -6 -39 0 -42 4 -3 7 6 7 20 0 20 -4 32 -7 22z"/>
<path d="M4260 4880 c-9 -6 -10 -10 -3 -10 6 0 15 5 18 10 8 12 4 12 -15 0z"/>
<path d="M4290 4877 c0 -5 6 -7 13 -4 6 2 20 0 29 -5 13 -6 16 -5 12 5 -5 14
-54 18 -54 4z"/>
<path d="M9560 4875 c-7 -9 -11 -17 -9 -20 3 -2 10 5 17 15 14 24 10 26 -8 5z"/>
<path d="M7352 4866 c7 -8 15 -12 17 -11 5 6 -10 25 -20 25 -5 0 -4 -6 3 -14z"/>
<path d="M7316 4855 c-3 -9 -6 -22 -5 -28 0 -7 5 -1 10 12 5 13 8 26 5 28 -2
2 -6 -3 -10 -12z"/>
<path d="M9576 4861 c-9 -14 1 -45 15 -49 8 -2 10 0 4 5 -5 4 -11 15 -13 25
-2 12 3 15 18 11 11 -3 20 -3 20 0 0 8 -40 16 -44 8z"/>
<path d="M9636 4861 c-3 -4 2 -16 12 -24 16 -15 18 -15 18 2 0 12 -5 17 -15
13 -9 -3 -12 -1 -7 6 4 7 5 12 2 12 -3 0 -7 -4 -10 -9z"/>
<path d="M4270 4849 c0 -5 5 -7 10 -4 6 3 10 8 10 11 0 2 -4 4 -10 4 -5 0 -10
-5 -10 -11z"/>
<path d="M4191 4833 c7 -12 15 -20 18 -17 3 2 -3 12 -13 22 -17 16 -18 16 -5
-5z"/>
<path d="M4320 4840 c-9 -6 -10 -10 -3 -10 6 0 15 5 18 10 8 12 4 12 -15 0z"/>
<path d="M7350 4830 c6 -11 13 -20 16 -20 2 0 0 9 -6 20 -6 11 -13 20 -16 20
-2 0 0 -9 6 -20z"/>
<path d="M7393 4843 c4 -3 2 -11 -3 -18 -7 -8 -6 -12 3 -12 7 0 14 9 14 19 1
10 -3 18 -9 18 -6 0 -8 -3 -5 -7z"/>
<path d="M7275 4830 c3 -5 8 -10 11 -10 2 0 4 5 4 10 0 6 -5 10 -11 10 -5 0
-7 -4 -4 -10z"/>
<path d="M9506 4808 c-19 -26 -11 -41 16 -32 15 4 18 3 13 -6 -5 -9 -4 -11 4
-6 17 11 2 28 -20 21 -14 -5 -17 -3 -13 9 3 9 9 14 13 11 4 -2 8 2 8 10 0 20
-3 19 -21 -7z"/>
<path d="M4286 4803 c-6 -14 -5 -15 5 -6 7 7 10 15 7 18 -3 3 -9 -2 -12 -12z"/>
<path d="M9636 4807 c3 -10 9 -15 12 -12 3 3 0 11 -7 18 -10 9 -11 8 -5 -6z"/>
<path d="M4126 4789 c-13 -19 -12 -49 1 -49 3 0 3 6 0 14 -3 7 1 23 9 35 8 11
13 21 10 21 -3 0 -12 -10 -20 -21z"/>
<path d="M4212 4801 c-11 -7 -10 -9 3 -14 9 -4 14 -3 10 2 -3 5 1 12 7 14 7 3
9 6 3 6 -5 0 -16 -3 -23 -8z"/>
<path d="M7304 4798 c9 -5 23 -5 32 0 12 6 7 9 -16 9 -23 0 -28 -3 -16 -9z"/>
<path d="M9551 4793 c6 -7 17 -13 23 -12 7 0 6 2 -2 6 -6 2 -10 8 -8 12 3 4
-1 8 -9 8 -11 0 -12 -4 -4 -14z"/>
<path d="M7270 4790 c0 -6 7 -10 15 -10 8 0 15 2 15 4 0 2 -7 6 -15 10 -8 3
-15 1 -15 -4z"/>
<path d="M9590 4786 c0 -2 7 -7 16 -10 8 -3 12 -2 9 4 -6 10 -25 14 -25 6z"/>
<path d="M4230 4759 c0 -5 5 -7 10 -4 6 3 10 8 10 11 0 2 -4 4 -10 4 -5 0 -10
-5 -10 -11z"/>
<path d="M7235 4760 c-17 -8 -16 -8 8 -7 15 1 27 5 27 9 0 10 -9 9 -35 -2z"/>
<path d="M7290 4766 c0 -2 7 -7 16 -10 8 -3 12 -2 9 4 -6 10 -25 14 -25 6z"/>
<path d="M4094 4752 c3 -5 0 -13 -6 -15 -9 -4 -10 -6 -1 -6 17 -1 25 16 12 25
-7 4 -9 3 -5 -4z"/>
<path d="M7356 4747 c3 -10 9 -15 12 -12 3 3 0 11 -7 18 -10 9 -11 8 -5 -6z"/>
<path d="M4190 4746 c0 -2 7 -7 16 -10 8 -3 12 -2 9 4 -6 10 -25 14 -25 6z"/>
<path d="M7188 4725 c-9 -12 -14 -25 -11 -29 10 -10 33 -7 33 4 0 5 -8 7 -17
3 -16 -6 -16 -4 1 15 11 12 17 24 15 26 -2 2 -12 -6 -21 -19z"/>
<path d="M7275 4739 c-8 -12 0 -22 20 -25 8 -1 13 2 9 7 -3 5 -10 6 -16 3 -7
-5 -9 -1 -5 9 7 19 2 23 -8 6z"/>
<path d="M9436 4727 c5 -20 3 -27 -7 -25 -7 2 -15 -5 -17 -14 -2 -10 1 -18 7
-18 6 0 7 7 4 17 -4 11 -3 14 5 9 17 -10 26 19 13 41 -9 15 -10 13 -5 -10z"/>
<path d="M7333 4725 c0 -8 4 -12 9 -9 5 3 6 10 3 15 -9 13 -12 11 -12 -6z"/>
<path d="M9530 4730 c-9 -6 -10 -10 -3 -10 6 0 15 5 18 10 8 12 4 12 -15 0z"/>
<path d="M4100 4720 c-9 -6 -10 -10 -3 -10 6 0 15 5 18 10 8 12 4 12 -15 0z"/>
<path d="M4130 4720 c0 -5 5 -10 10 -10 6 0 10 5 10 10 0 6 -4 10 -10 10 -5 0
-10 -4 -10 -10z"/>
<path d="M4173 4715 c0 -8 4 -12 9 -9 4 3 8 9 8 15 0 5 -4 9 -8 9 -5 0 -9 -7
-9 -15z"/>
<path d="M7220 4719 c0 -5 5 -7 10 -4 6 3 10 8 10 11 0 2 -4 4 -10 4 -5 0 -10
-5 -10 -11z"/>
<path d="M9513 4688 c-2 -18 0 -20 7 -8 12 18 13 30 2 30 -4 0 -9 -10 -9 -22z"/>
<path d="M4110 4689 c0 -5 5 -7 10 -4 6 3 10 8 10 11 0 2 -4 4 -10 4 -5 0 -10
-5 -10 -11z"/>
<path d="M4153 4687 c0 -8 6 -14 14 -14 9 0 10 4 2 14 -6 7 -12 13 -14 13 -1
0 -2 -6 -2 -13z"/>
<path d="M7133 4680 c1 -14 6 -23 11 -22 5 2 13 -2 18 -10 8 -11 9 -11 6 0 -2
8 -8 13 -13 12 -6 -1 -13 9 -17 22 -7 22 -7 22 -5 -2z"/>
<path d="M7162 4684 c10 -10 20 -16 22 -13 3 3 -5 11 -17 18 -21 13 -21 12 -5
-5z"/>
<path d="M4031 4673 c7 -12 15 -20 18 -17 3 2 -3 12 -13 22 -17 16 -18 16 -5
-5z"/>
<path d="M4190 4681 c0 -6 4 -13 10 -16 6 -3 7 1 4 9 -7 18 -14 21 -14 7z"/>
<path d="M9451 4687 c2 -1 15 -11 29 -22 l25 -20 -19 23 c-11 12 -24 22 -29
22 -6 0 -8 -1 -6 -3z"/>
<path d="M3990 4649 c-14 -10 -20 -19 -15 -19 6 0 3 -5 -5 -11 -13 -9 -13 -10
0 -6 8 2 14 9 13 14 -1 5 7 15 18 21 17 11 20 10 17 -5 -2 -10 -9 -23 -17 -29
-15 -12 -7 -34 12 -34 7 0 6 4 -3 10 -13 9 -13 11 -1 19 16 10 25 47 13 55 -4
2 -19 -4 -32 -15z"/>
<path d="M9434 4662 c-8 -5 -5 -12 10 -24 18 -13 23 -13 23 -3 0 8 -3 14 -6
13 -19 -2 -24 4 -11 12 8 5 11 10 5 10 -5 0 -15 -4 -21 -8z"/>
<path d="M7192 4655 c4 -4 0 -14 -10 -21 -15 -12 -15 -12 6 -7 24 6 29 18 10
29 -7 4 -10 4 -6 -1z"/>
<path d="M9335 4650 c-4 -6 -3 -15 1 -22 5 -8 2 -9 -9 -5 -9 3 -19 2 -21 -2
-3 -5 5 -8 17 -7 15 1 21 7 19 19 -3 16 0 17 18 7 12 -6 24 -10 26 -7 2 2 -7
9 -21 15 -15 7 -27 8 -30 2z"/>
<path d="M4060 4635 c0 -8 2 -15 4 -15 2 0 6 7 10 15 3 8 1 15 -4 15 -6 0 -10
-7 -10 -15z"/>
<path d="M7094 4629 c3 -15 36 -21 36 -7 0 6 -6 8 -14 5 -8 -3 -17 -2 -20 4
-2 5 -3 4 -2 -2z"/>
<path d="M7070 4621 c0 -10 29 -36 34 -30 1 2 -6 12 -16 22 -10 9 -18 13 -18
8z"/>
<path d="M9355 4610 c-3 -5 -3 -10 1 -10 4 0 0 -6 -11 -13 -15 -12 -16 -15 -4
-22 8 -5 10 -4 6 0 -4 5 3 15 15 22 13 7 17 12 10 13 -7 0 -10 5 -7 10 3 6 4
10 1 10 -3 0 -8 -4 -11 -10z"/>
<path d="M9434 4606 c1 -8 5 -18 8 -22 4 -3 5 1 4 10 -1 8 -5 18 -8 22 -4 3
-5 -1 -4 -10z"/>
<path d="M4069 4597 c6 -8 7 -18 3 -22 -4 -5 -1 -5 6 -1 10 6 10 11 1 22 -6 8
-14 14 -16 14 -3 0 0 -6 6 -13z"/>
<path d="M4176 4593 c-6 -14 -5 -15 5 -6 7 7 10 15 7 18 -3 3 -9 -2 -12 -12z"/>
<path d="M7050 4601 c8 -6 11 -11 5 -11 -5 0 -1 -7 10 -16 11 -8 19 -18 17
-22 -2 -3 2 -8 10 -10 9 -2 8 0 -2 7 -8 6 -10 11 -5 11 6 0 1 7 -10 16 -11 8
-19 18 -17 22 2 3 -2 8 -10 10 -9 2 -8 0 2 -7z"/>
<path d="M7153 4603 c4 -3 2 -11 -3 -18 -7 -8 -6 -12 3 -12 7 0 14 9 14 19 1
10 -3 18 -9 18 -6 0 -8 -3 -5 -7z"/>
<path d="M7210 4599 c0 -5 5 -7 10 -4 6 3 10 8 10 11 0 2 -4 4 -10 4 -5 0 -10
-5 -10 -11z"/>
<path d="M3948 4593 c6 -2 10 -9 7 -14 -4 -5 1 -6 10 -2 13 5 14 7 3 14 -7 5
-17 8 -23 8 -5 0 -4 -3 3 -6z"/>
<path d="M9308 4593 c7 -3 16 -2 19 1 4 3 -2 6 -13 5 -11 0 -14 -3 -6 -6z"/>
<path d="M4030 4586 c0 -2 7 -7 16 -10 8 -3 12 -2 9 4 -6 10 -25 14 -25 6z"/>
<path d="M4133 4575 c0 -8 4 -12 9 -9 5 3 6 10 3 15 -9 13 -12 11 -12 -6z"/>
<path d="M9270 4580 c0 -5 5 -10 10 -10 6 0 10 5 10 10 0 6 -4 10 -10 10 -5 0
-10 -4 -10 -10z"/>
<path d="M3930 4565 c0 -8 4 -15 10 -15 5 0 7 7 4 15 -4 8 -8 15 -10 15 -2 0
-4 -7 -4 -15z"/>
<path d="M7021 4571 c-8 -5 -11 -16 -8 -26 4 -9 11 -14 16 -11 5 4 12 1 14 -4
3 -6 4 -5 3 2 -2 7 -9 12 -15 11 -6 -2 -11 1 -11 5 0 17 14 21 29 9 14 -11 14
-10 2 6 -7 9 -14 17 -15 17 0 0 -7 -4 -15 -9z"/>
<path d="M7108 4573 c7 -3 16 -2 19 1 4 3 -2 6 -13 5 -11 0 -14 -3 -6 -6z"/>
<path d="M9425 4560 c10 -11 20 -20 23 -20 3 0 -3 9 -13 20 -10 11 -20 20 -23
20 -3 0 3 -9 13 -20z"/>
<path d="M3975 4560 c3 -5 8 -10 11 -10 2 0 4 5 4 10 0 6 -5 10 -11 10 -5 0
-7 -4 -4 -10z"/>
<path d="M4005 4560 c-3 -6 1 -7 9 -4 18 7 21 14 7 14 -6 0 -13 -4 -16 -10z"/>
<path d="M9300 4560 c0 -5 5 -10 10 -10 6 0 10 5 10 10 0 6 -4 10 -10 10 -5 0
-10 -4 -10 -10z"/>
<path d="M9386 4562 c-3 -5 1 -9 9 -9 8 0 12 4 9 9 -3 4 -7 8 -9 8 -2 0 -6 -4
-9 -8z"/>
<path d="M9460 4565 c0 -2 6 -8 13 -14 10 -8 14 -7 14 2 0 8 -6 14 -14 14 -7
0 -13 -1 -13 -2z"/>
<path d="M3914 4542 c3 -5 0 -13 -6 -15 -9 -4 -10 -6 -1 -6 17 -1 25 16 12 25
-7 4 -9 3 -5 -4z"/>
<path d="M3950 4540 c-13 -8 -12 -10 3 -10 9 0 17 5 17 10 0 12 -1 12 -20 0z"/>
<path d="M6990 4541 c0 -10 29 -36 34 -30 1 2 -6 12 -16 22 -10 9 -18 13 -18
8z"/>
<path d="M9270 4540 c0 -5 5 -10 10 -10 6 0 10 5 10 10 0 6 -4 10 -10 10 -5 0
-10 -4 -10 -10z"/>
<path d="M7096 4513 c-6 -14 -5 -15 5 -6 7 7 10 15 7 18 -3 3 -9 -2 -12 -12z"/>
<path d="M7130 4519 c0 -5 5 -7 10 -4 6 3 10 8 10 11 0 2 -4 4 -10 4 -5 0 -10
-5 -10 -11z"/>
<path d="M9230 4520 c0 -5 7 -7 15 -4 8 4 15 8 15 10 0 2 -7 4 -15 4 -8 0 -15
-4 -15 -10z"/>
<path d="M9300 4519 c0 -4 10 -6 21 -4 32 6 34 13 4 13 -14 0 -25 -4 -25 -9z"/>
<path d="M9274 4505 c1 -8 8 -21 16 -28 12 -10 12 -9 2 4 -6 9 -9 18 -6 21 3
3 1 9 -4 12 -6 3 -9 -1 -8 -9z"/>
<path d="M3920 4506 c0 -2 7 -7 16 -10 8 -3 12 -2 9 4 -6 10 -25 14 -25 6z"/>
<path d="M3822 4485 c4 -5 3 -14 -3 -22 -9 -9 -8 -13 0 -13 6 0 11 4 11 10 0
5 7 7 15 4 8 -4 12 -11 8 -17 -3 -6 -1 -7 5 -3 16 10 16 11 -15 31 -16 10 -25
14 -21 10z"/>
<path d="M3890 4485 c0 -7 30 -13 34 -7 3 4 -4 9 -15 9 -10 1 -19 0 -19 -2z"/>
<path d="M6937 4475 c-6 -15 10 -32 20 -21 4 3 1 6 -5 6 -6 0 -9 7 -6 15 4 8
4 15 1 15 -3 0 -7 -7 -10 -15z"/>
<path d="M9252 4476 c7 -8 15 -12 17 -11 5 6 -10 25 -20 25 -5 0 -4 -6 3 -14z"/>
<path d="M3880 4450 c-7 -14 -7 -20 0 -20 5 0 10 7 10 16 0 9 5 12 12 8 7 -4
8 -3 4 4 -10 16 -14 15 -26 -8z"/>
<path d="M9228 4448 c-10 -10 -14 -18 -9 -18 10 0 36 29 30 34 -2 1 -12 -6
-21 -16z"/>
<path d="M3785 4441 c-3 -11 -12 -20 -18 -18 -7 1 -11 -7 -10 -20 2 -14 -2
-22 -10 -20 -18 3 -15 -46 3 -50 9 -3 11 -1 5 4 -15 13 -18 44 -3 41 8 -2 12
6 11 20 -2 13 1 21 7 17 9 -6 35 33 27 42 -3 2 -8 -5 -12 -16z"/>
<path d="M6885 4450 c-3 -6 1 -7 9 -4 18 7 21 14 7 14 -6 0 -13 -4 -16 -10z"/>
<path d="M7033 4445 c0 -8 4 -12 9 -9 5 3 6 10 3 15 -9 13 -12 11 -12 -6z"/>
<path d="M9290 4456 c0 -2 8 -10 18 -17 15 -13 16 -12 3 4 -13 16 -21 21 -21
13z"/>
<path d="M3919 4433 c-12 -16 -12 -17 2 -6 9 7 20 9 24 5 5 -4 5 -1 1 6 -9 16
-11 15 -27 -5z"/>
<path d="M6911 4440 c-9 -5 -4 -7 13 -7 29 0 32 2 13 10 -8 3 -20 2 -26 -3z"/>
<path d="M6975 4440 c3 -5 8 -10 11 -10 2 0 4 5 4 10 0 6 -5 10 -11 10 -5 0
-7 -4 -4 -10z"/>
<path d="M9151 4433 c7 -12 15 -20 18 -17 3 2 -3 12 -13 22 -17 16 -18 16 -5
-5z"/>
<path d="M3810 4431 c0 -6 4 -13 10 -16 6 -3 7 1 4 9 -7 18 -14 21 -14 7z"/>
<path d="M3853 4423 c4 -6 1 -14 -5 -16 -10 -4 -10 -6 0 -6 7 -1 10 -6 6 -13
-4 -6 -3 -8 4 -5 12 8 10 32 -3 44 -4 4 -5 3 -2 -4z"/>
<path d="M6868 4405 c-9 -12 -14 -25 -11 -29 10 -10 33 -7 33 4 0 5 -8 7 -17
3 -16 -6 -16 -4 1 15 11 12 17 24 15 26 -2 2 -12 -6 -21 -19z"/>
<path d="M6955 4419 c-8 -12 0 -22 19 -25 7 -1 13 4 13 12 0 11 -3 11 -16 1
-12 -10 -14 -9 -8 6 7 19 2 23 -8 6z"/>
<path d="M7050 4420 c0 -5 5 -10 11 -10 5 0 7 5 4 10 -3 6 -8 10 -11 10 -2 0
-4 -4 -4 -10z"/>
<path d="M3890 4417 c0 -2 6 -10 14 -16 11 -9 16 -9 22 1 4 7 4 10 -1 6 -4 -4
-14 -3 -22 3 -7 6 -13 9 -13 6z"/>
<path d="M6910 4410 c-8 -5 -12 -12 -9 -15 4 -3 12 1 19 10 14 17 11 19 -10 5z"/>
<path d="M9193 4413 c-7 -2 -13 -9 -13 -14 0 -6 4 -8 9 -5 5 4 11 0 14 -6 3
-7 4 -3 4 10 -1 12 -1 22 -2 21 0 0 -6 -3 -12 -6z"/>
<path d="M3795 4400 c3 -5 11 -10 16 -10 6 0 7 5 4 10 -3 6 -11 10 -16 10 -6
0 -7 -4 -4 -10z"/>
<path d="M9231 4387 c-13 -21 -12 -21 5 -5 10 10 16 20 13 22 -3 3 -11 -5 -18
-17z"/>
<path d="M9264 4402 c4 -3 14 -7 22 -8 9 -1 13 0 10 4 -4 3 -14 7 -22 8 -9 1
-13 0 -10 -4z"/>
<path d="M9151 4367 c-13 -21 -12 -21 5 -5 10 10 16 20 13 22 -3 3 -11 -5 -18
-17z"/>
<path d="M6813 4360 c1 -14 6 -23 11 -22 5 2 13 -2 18 -10 8 -11 9 -11 6 0 -2
8 -8 13 -13 12 -6 -1 -13 9 -17 22 -7 22 -7 22 -5 -2z"/>
<path d="M6842 4364 c10 -10 20 -16 22 -13 3 3 -5 11 -17 18 -21 13 -21 12 -5
-5z"/>
<path d="M9082 4364 c10 -10 20 -16 22 -13 3 3 -5 11 -17 18 -21 13 -21 12 -5
-5z"/>
<path d="M3711 4354 c0 -11 3 -14 6 -6 3 7 2 16 -1 19 -3 4 -6 -2 -5 -13z"/>
<path d="M3765 4360 c-3 -6 1 -7 9 -4 18 7 21 14 7 14 -6 0 -13 -4 -16 -10z"/>
<path d="M3825 4360 c-3 -6 1 -7 9 -4 18 7 21 14 7 14 -6 0 -13 -4 -16 -10z"/>
<path d="M3777 4343 c-3 -5 8 -8 25 -9 20 -1 25 2 16 7 -16 11 -35 11 -41 2z"/>
<path d="M9030 4345 c0 -5 5 -17 10 -25 5 -8 10 -10 10 -5 0 6 -5 17 -10 25
-5 8 -10 11 -10 5z"/>
<path d="M6872 4335 c4 -4 0 -14 -10 -21 -15 -12 -15 -12 6 -7 24 6 29 18 10
29 -7 4 -10 4 -6 -1z"/>
<path d="M9118 4333 c7 -3 16 -2 19 1 4 3 -2 6 -13 5 -11 0 -14 -3 -6 -6z"/>
<path d="M3646 4309 c-13 -19 -12 -49 1 -49 3 0 3 6 0 14 -3 7 1 23 9 35 8 11
13 21 10 21 -3 0 -12 -10 -20 -21z"/>
<path d="M3679 4313 c-13 -17 -13 -17 6 -3 11 8 22 16 24 17 2 2 0 3 -6 3 -6
0 -17 -8 -24 -17z"/>
<path d="M3710 4312 c-8 -9 -14 -20 -12 -25 1 -5 -8 -5 -20 -2 -26 9 -23 3 9
-14 18 -9 21 -8 19 7 -2 9 4 22 13 29 9 6 14 14 11 16 -3 3 -12 -2 -20 -11z"/>
<path d="M6774 4309 c3 -15 36 -21 36 -7 0 6 -6 8 -14 5 -8 -3 -17 -2 -20 4
-2 5 -3 4 -2 -2z"/>
<path d="M9056 4303 c-6 -14 -5 -15 5 -6 7 7 10 15 7 18 -3 3 -9 -2 -12 -12z"/>
<path d="M9108 4313 c7 -3 16 -2 19 1 4 3 -2 6 -13 5 -11 0 -14 -3 -6 -6z"/>
<path d="M6750 4301 c0 -10 29 -36 34 -30 1 2 -6 12 -16 22 -10 9 -18 13 -18
8z"/>
<path d="M6715 4281 c-4 -7 0 -8 11 -4 11 4 15 3 10 -5 -3 -6 0 -14 8 -19 8
-4 15 -12 15 -18 0 -5 5 -11 13 -13 9 -2 8 0 -2 7 -8 6 -10 11 -5 11 6 0 1 7
-10 16 -11 8 -19 18 -17 22 6 11 -16 14 -23 3z"/>
<path d="M6833 4283 c4 -3 2 -11 -3 -18 -7 -8 -6 -12 3 -12 7 0 14 9 14 19 1
10 -3 18 -9 18 -6 0 -8 -3 -5 -7z"/>
<path d="M6890 4279 c0 -5 5 -7 10 -4 6 3 10 8 10 11 0 2 -4 4 -10 4 -5 0 -10
-5 -10 -11z"/>
<path d="M8990 4275 c0 -8 2 -15 4 -15 2 0 6 7 10 15 3 8 1 15 -4 15 -6 0 -10
-7 -10 -15z"/>
<path d="M9065 4280 c-3 -6 1 -7 9 -4 18 7 21 14 7 14 -6 0 -13 -4 -16 -10z"/>
<path d="M3795 4271 c-3 -5 -2 -12 3 -15 5 -3 9 1 9 9 0 17 -3 19 -12 6z"/>
<path d="M9030 4269 c0 -5 -6 -7 -12 -3 -7 4 -10 3 -5 -1 13 -15 46 -13 40 2
-6 16 -23 17 -23 2z"/>
<path d="M6710 4256 c0 -2 8 -10 18 -17 15 -13 16 -12 3 4 -13 16 -21 21 -21
13z"/>
<path d="M6788 4253 c7 -3 16 -2 19 1 4 3 -2 6 -13 5 -11 0 -14 -3 -6 -6z"/>
<path d="M3630 4241 c0 -10 19 -25 25 -20 1 2 -3 10 -11 17 -8 7 -14 8 -14 3z"/>
<path d="M3651 4247 c2 -1 15 -11 29 -22 l25 -20 -19 23 c-11 12 -24 22 -29
22 -6 0 -8 -1 -6 -3z"/>
<path d="M3713 4230 c1 -21 10 -18 13 5 1 8 -2 15 -6 15 -5 0 -8 -9 -7 -20z"/>
<path d="M8920 4235 c-7 -9 -11 -17 -9 -20 3 -2 10 5 17 15 14 24 10 26 -8 5z"/>
<path d="M8989 4233 c12 -8 25 -12 28 -9 4 3 1 6 -6 6 -7 0 -10 4 -7 8 2 4 -5
9 -16 9 -21 2 -21 2 1 -14z"/>
<path d="M3578 4223 c-10 -19 -2 -46 15 -49 9 -1 17 2 17 8 0 6 -6 8 -14 5
-10 -4 -14 0 -13 14 1 11 9 19 20 19 10 0 16 -4 12 -9 -3 -5 -1 -12 4 -15 5
-4 8 2 7 11 -3 18 -41 31 -48 16z"/>
<path d="M8935 4220 c-8 -13 3 -44 16 -48 8 -2 10 0 4 5 -5 4 -12 17 -13 27
-3 18 -2 18 14 5 15 -12 16 -12 9 0 -6 11 -4 13 9 8 9 -4 15 -3 11 2 -6 10
-44 11 -50 1z"/>
<path d="M6653 4200 c1 -14 6 -23 11 -22 5 2 13 -2 18 -10 8 -11 9 -11 6 0 -2
8 -8 13 -13 12 -6 -1 -13 9 -17 22 -7 22 -7 22 -5 -2z"/>
<path d="M6682 4204 c10 -10 20 -16 22 -13 3 3 -5 11 -17 18 -21 13 -21 12 -5
-5z"/>
<path d="M3645 4200 c-3 -6 1 -7 9 -4 18 7 21 14 7 14 -6 0 -13 -4 -16 -10z"/>
<path d="M3719 4193 c-12 -16 -12 -17 2 -6 9 7 20 9 24 5 5 -4 5 -1 1 6 -9 16
-11 15 -27 -5z"/>
<path d="M6776 4193 c-6 -14 -5 -15 5 -6 7 7 10 15 7 18 -3 3 -9 -2 -12 -12z"/>
<path d="M6810 4199 c0 -5 5 -7 10 -4 6 3 10 8 10 11 0 2 -4 4 -10 4 -5 0 -10
-5 -10 -11z"/>
<path d="M8995 4200 c-3 -5 -1 -10 4 -10 6 0 11 5 11 10 0 6 -2 10 -4 10 -3 0
-8 -4 -11 -10z"/>
<path d="M8866 4168 c-19 -26 -11 -41 16 -32 15 4 18 3 13 -6 -5 -9 -4 -11 4
-6 17 11 2 28 -20 21 -14 -5 -17 -3 -13 9 3 9 9 14 13 11 4 -2 8 2 8 10 0 20
-3 19 -21 -7z"/>
<path d="M9050 4179 c0 -5 5 -7 10 -4 6 3 10 8 10 11 0 2 -4 4 -10 4 -5 0 -10
-5 -10 -11z"/>
<path d="M9113 4175 c0 -8 4 -12 9 -9 5 3 6 10 3 15 -9 13 -12 11 -12 -6z"/>
<path d="M3616 4164 c-4 -9 -4 -19 -1 -22 3 -3 5 0 5 8 0 10 4 10 18 -1 16
-13 16 -13 2 6 -8 11 -15 21 -16 23 -1 2 -4 -5 -8 -14z"/>
<path d="M3486 4149 c-13 -19 -12 -49 1 -49 3 0 3 6 0 14 -3 7 1 23 9 35 8 11
13 21 10 21 -3 0 -12 -10 -20 -21z"/>
<path d="M3551 4153 c0 -11 3 -13 6 -5 2 6 10 9 15 6 7 -4 8 -2 4 4 -11 18
-26 14 -25 -5z"/>
<path d="M8911 4153 c6 -7 17 -13 23 -12 7 0 6 2 -2 6 -6 2 -10 8 -8 12 3 4
-1 8 -9 8 -11 0 -12 -4 -4 -14z"/>
<path d="M8960 4155 c-7 -9 -8 -15 -2 -15 5 0 12 7 16 15 3 8 4 15 2 15 -2 0
-9 -7 -16 -15z"/>
<path d="M3515 4150 c-3 -5 -1 -10 4 -10 6 0 11 5 11 10 0 6 -2 10 -4 10 -3 0
-8 -4 -11 -10z"/>
<path d="M6614 4149 c3 -15 36 -21 36 -7 0 6 -6 8 -14 5 -8 -3 -17 -2 -20 4
-2 5 -3 4 -2 -2z"/>
<path d="M6695 4150 c-3 -6 1 -7 9 -4 18 7 21 14 7 14 -6 0 -13 -4 -16 -10z"/>
<path d="M8989 4143 c-13 -16 -12 -17 4 -4 9 7 17 15 17 17 0 8 -8 3 -21 -13z"/>
<path d="M6590 4141 c0 -10 29 -36 34 -30 1 2 -6 12 -16 22 -10 9 -18 13 -18
8z"/>
<path d="M3500 4125 c0 -8 29 -12 39 -5 9 5 4 8 -13 8 -14 0 -26 -2 -26 -3z"/>
<path d="M6673 4123 c4 -3 2 -11 -3 -18 -7 -8 -6 -12 3 -12 7 0 14 9 14 19 1
10 -3 18 -9 18 -6 0 -8 -3 -5 -7z"/>
<path d="M3544 4104 c-18 -14 -18 -15 4 -4 12 6 22 13 22 15 0 8 -5 6 -26 -11z"/>
<path d="M6730 4100 c0 -5 5 -10 11 -10 5 0 7 5 4 10 -3 6 -8 10 -11 10 -2 0
-4 -4 -4 -10z"/>
<path d="M8796 4087 c5 -20 3 -27 -7 -25 -7 2 -15 -5 -17 -14 -2 -10 1 -18 7
-18 6 0 7 7 4 17 -4 11 -3 14 5 9 17 -10 26 19 13 41 -9 15 -10 13 -5 -10z"/>
<path d="M6628 4093 c7 -3 16 -2 19 1 4 3 -2 6 -13 5 -11 0 -14 -3 -6 -6z"/>
<path d="M8890 4090 c-9 -6 -10 -10 -3 -10 6 0 15 5 18 10 8 12 4 12 -15 0z"/>
<path d="M3470 4081 c0 -10 19 -25 25 -20 1 2 -3 10 -11 17 -8 7 -14 8 -14 3z"/>
<path d="M3490 4086 c0 -2 7 -7 16 -10 8 -3 12 -2 9 4 -6 10 -25 14 -25 6z"/>
<path d="M3536 4067 c3 -10 9 -15 12 -12 3 3 0 11 -7 18 -10 9 -11 8 -5 -6z"/>
<path d="M3419 4068 c-11 -49 -4 -65 21 -46 12 8 12 9 -2 5 -12 -4 -16 0 -15
14 1 11 9 19 20 19 10 0 16 -4 12 -9 -3 -5 -1 -12 4 -15 5 -4 8 2 7 11 -2 15
-44 33 -47 21z"/>
<path d="M6535 4061 c-3 -5 0 -13 6 -17 7 -4 9 -3 5 4 -3 6 3 12 16 15 23 4
23 4 1 6 -12 0 -24 -3 -28 -8z"/>
<path d="M8873 4048 c-2 -18 0 -20 7 -8 12 18 13 30 2 30 -4 0 -9 -10 -9 -22z"/>
<path d="M6510 4049 c0 -5 -4 -7 -10 -4 -5 3 -7 0 -4 -8 3 -10 -1 -14 -13 -14
-9 1 -18 -4 -19 -10 -1 -7 -2 -17 -3 -23 0 -5 -9 -7 -18 -4 -15 5 -16 4 -3 -5
11 -8 18 -7 27 6 7 9 10 21 6 26 -4 6 0 8 11 4 10 -4 19 -1 22 8 4 8 10 12 15
9 5 -3 6 2 3 10 -7 18 -14 21 -14 5z"/>
<path d="M3599 4033 c-13 -16 -12 -17 4 -4 16 13 21 21 13 21 -2 0 -10 -8 -17
-17z"/>
<path d="M6570 4046 c0 -2 7 -7 16 -10 8 -3 12 -2 9 4 -6 10 -25 14 -25 6z"/>
<path d="M8811 4047 c2 -1 15 -11 29 -22 l25 -20 -19 23 c-11 12 -24 22 -29
22 -6 0 -8 -1 -6 -3z"/>
<path d="M3505 4019 c-3 -4 2 -6 10 -5 21 3 28 13 10 13 -9 0 -18 -4 -20 -8z"/>
<path d="M6550 4019 c0 -5 5 -7 10 -4 6 3 10 8 10 11 0 2 -4 4 -10 4 -5 0 -10
-5 -10 -11z"/>
<path d="M6646 4022 c-3 -5 1 -9 9 -9 8 0 12 4 9 9 -3 4 -7 8 -9 8 -2 0 -6 -4
-9 -8z"/>
<path d="M8794 4022 c-8 -5 -5 -12 10 -24 18 -13 23 -13 23 -3 0 8 -3 14 -6
13 -19 -2 -24 4 -11 12 8 5 11 10 5 10 -5 0 -15 -4 -21 -8z"/>
<path d="M3460 4009 c0 -5 -4 -7 -10 -4 -6 4 -7 -1 -3 -11 4 -11 8 -13 11 -6
2 7 8 10 13 7 5 -4 6 1 3 9 -7 18 -14 21 -14 5z"/>
<path d="M6530 4011 c0 -6 4 -13 10 -16 6 -3 7 1 4 9 -7 18 -14 21 -14 7z"/>
<path d="M6569 4003 c-13 -16 -12 -17 4 -4 9 7 17 15 17 17 0 8 -8 3 -21 -13z"/>
<path d="M8695 4010 c-4 -6 -3 -15 1 -22 5 -8 2 -9 -9 -5 -9 3 -19 2 -21 -2
-3 -5 5 -8 17 -7 15 1 21 7 19 19 -3 16 0 17 18 7 12 -6 24 -10 26 -7 2 2 -7
9 -21 15 -15 7 -27 8 -30 2z"/>
<path d="M3393 3996 c0 -8 6 -12 14 -9 7 3 10 9 7 14 -8 14 -21 11 -21 -5z"/>
<path d="M3630 4000 c0 -5 5 -10 11 -10 5 0 7 5 4 10 -3 6 -8 10 -11 10 -2 0
-4 -4 -4 -10z"/>
<path d="M6506 4001 c-3 -5 1 -11 9 -14 9 -4 12 -1 8 9 -6 16 -10 17 -17 5z"/>
<path d="M6476 3973 c-6 -14 -5 -15 5 -6 7 7 10 15 7 18 -3 3 -9 -2 -12 -12z"/>
<path d="M6606 3978 c3 -5 10 -6 15 -3 13 9 11 12 -6 12 -8 0 -12 -4 -9 -9z"/>
<path d="M8715 3970 c-3 -5 -3 -10 1 -10 4 0 0 -6 -11 -13 -15 -12 -16 -15 -4
-22 8 -5 10 -4 6 0 -4 5 3 15 15 22 13 7 17 12 10 13 -7 0 -10 5 -7 10 3 6 4
10 1 10 -3 0 -8 -4 -11 -10z"/>
<path d="M8794 3966 c1 -8 5 -18 8 -22 4 -3 5 1 4 10 -1 8 -5 18 -8 22 -4 3
-5 -1 -4 -10z"/>
<path d="M3310 3960 c-13 -8 -12 -10 3 -10 9 0 17 5 17 10 0 12 -1 12 -20 0z"/>
<path d="M3353 3952 c-17 -13 -20 -21 -12 -32 9 -13 10 -13 6 0 -2 8 8 23 22
32 14 10 22 18 16 18 -5 0 -20 -8 -32 -18z"/>
<path d="M6500 3960 c0 -4 7 -7 15 -6 23 3 26 12 5 13 -11 1 -20 -2 -20 -7z"/>
<path d="M3384 3944 c-18 -14 -18 -15 4 -4 12 6 22 13 22 15 0 8 -5 6 -26 -11z"/>
<path d="M8668 3953 c7 -3 16 -2 19 1 4 3 -2 6 -13 5 -11 0 -14 -3 -6 -6z"/>
<path d="M3275 3940 c-3 -5 -1 -10 4 -10 6 0 11 5 11 10 0 6 -2 10 -4 10 -3 0
-8 -4 -11 -10z"/>
<path d="M6470 3940 c0 -5 5 -10 10 -10 6 0 10 5 10 10 0 6 -4 10 -10 10 -5 0
-10 -4 -10 -10z"/>
<path d="M8630 3940 c0 -5 5 -10 10 -10 6 0 10 5 10 10 0 6 -4 10 -10 10 -5 0
-10 -4 -10 -10z"/>
<path d="M3415 3930 c-4 -6 -10 -8 -15 -5 -5 3 -11 1 -14 -4 -8 -13 22 -7 36
7 7 7 9 12 6 12 -4 0 -10 -5 -13 -10z"/>
<path d="M8785 3920 c10 -11 20 -20 23 -20 3 0 -3 9 -13 20 -10 11 -20 20 -23
20 -3 0 3 -9 13 -20z"/>
<path d="M3295 3920 c-3 -5 -2 -10 4 -10 5 0 13 5 16 10 3 6 2 10 -4 10 -5 0
-13 -4 -16 -10z"/>
<path d="M6440 3919 c0 -5 5 -7 10 -4 6 3 10 8 10 11 0 2 -4 4 -10 4 -5 0 -10
-5 -10 -11z"/>
<path d="M8660 3920 c0 -5 5 -10 10 -10 6 0 10 5 10 10 0 6 -4 10 -10 10 -5 0
-10 -4 -10 -10z"/>
<path d="M8746 3922 c-3 -5 1 -9 9 -9 8 0 12 4 9 9 -3 4 -7 8 -9 8 -2 0 -6 -4
-9 -8z"/>
<path d="M8820 3925 c0 -2 6 -8 13 -14 10 -8 14 -7 14 2 0 8 -6 14 -14 14 -7
0 -13 -1 -13 -2z"/>
<path d="M3274 3902 c3 -5 0 -13 -6 -15 -9 -4 -10 -6 -1 -6 17 -1 25 16 12 25
-7 4 -9 3 -5 -4z"/>
<path d="M3310 3900 c-11 -7 -11 -10 -2 -10 8 0 10 -5 6 -12 -4 -7 -3 -9 1 -5
7 6 17 37 12 37 -1 0 -9 -5 -17 -10z"/>
<path d="M8630 3900 c0 -5 5 -10 10 -10 6 0 10 5 10 10 0 6 -4 10 -10 10 -5 0
-10 -4 -10 -10z"/>
<path d="M6373 3880 c3 -17 11 -25 26 -26 12 -1 24 3 28 9 3 6 1 7 -5 3 -5 -3
-13 0 -15 6 -4 10 -6 10 -6 1 -1 -7 -6 -13 -12 -13 -5 0 -8 4 -5 8 2 4 0 14
-5 22 -7 11 -8 8 -6 -10z"/>
<path d="M6464 3884 c-18 -14 -18 -15 4 -4 12 6 22 13 22 15 0 8 -5 6 -26 -11z"/>
<path d="M8590 3880 c0 -5 7 -7 15 -4 8 4 15 8 15 10 0 2 -7 4 -15 4 -8 0 -15
-4 -15 -10z"/>
<path d="M8660 3879 c0 -4 10 -6 21 -4 32 6 34 13 4 13 -14 0 -25 -4 -25 -9z"/>
<path d="M8634 3865 c1 -8 8 -21 16 -28 12 -10 12 -9 2 4 -6 9 -9 18 -6 21 3
3 1 9 -4 12 -6 3 -9 -1 -8 -9z"/>
<path d="M3280 3866 c0 -2 7 -7 16 -10 8 -3 12 -2 9 4 -6 10 -25 14 -25 6z"/>
<path d="M6435 3849 c-4 -6 -5 -12 -2 -15 2 -3 7 2 10 11 7 17 1 20 -8 4z"/>
<path d="M3166 3829 c-13 -19 -12 -49 1 -49 3 0 3 6 0 14 -3 7 1 23 9 35 8 11
13 21 10 21 -3 0 -12 -10 -20 -21z"/>
<path d="M3270 3839 c0 -5 5 -7 10 -4 6 3 10 8 10 11 0 2 -4 4 -10 4 -5 0 -10
-5 -10 -11z"/>
<path d="M3430 3846 c0 -2 7 -7 16 -10 8 -3 12 -2 9 4 -6 10 -25 14 -25 6z"/>
<path d="M8612 3836 c7 -8 15 -12 17 -11 5 6 -10 25 -20 25 -5 0 -4 -6 3 -14z"/>
<path d="M6397 3829 c7 -7 15 -10 18 -7 3 3 -2 9 -12 12 -14 6 -15 5 -6 -5z"/>
<path d="M3203 3823 c9 -2 14 -9 11 -15 -4 -7 -2 -8 5 -4 15 10 4 26 -17 25
-15 -1 -15 -2 1 -6z"/>
<path d="M6356 3824 c15 -4 20 -11 17 -23 -3 -10 -1 -21 4 -24 5 -3 8 7 7 21
0 21 -6 27 -25 29 -20 1 -21 1 -3 -3z"/>
<path d="M8588 3808 c-10 -10 -14 -18 -9 -18 10 0 36 29 30 34 -2 1 -12 -6
-21 -16z"/>
<path d="M3236 3805 c-3 -8 -1 -15 4 -15 6 0 10 7 10 15 0 8 -2 15 -4 15 -2 0
-6 -7 -10 -15z"/>
<path d="M8650 3816 c0 -2 8 -10 18 -17 15 -13 16 -12 3 4 -13 16 -21 21 -21
13z"/>
<path d="M3279 3793 c-12 -16 -12 -17 2 -6 9 7 20 9 24 5 5 -4 5 -1 1 6 -9 16
-11 15 -27 -5z"/>
<path d="M6337 3795 c3 -10 1 -15 -8 -13 -8 2 -14 -8 -15 -24 -2 -16 1 -28 6
-28 5 0 7 11 4 25 -3 16 0 24 8 23 6 -2 14 5 16 15 2 9 -1 17 -7 17 -6 0 -8
-7 -4 -15z"/>
<path d="M8511 3793 c7 -12 15 -20 18 -17 3 2 -3 12 -13 22 -17 16 -18 16 -5
-5z"/>
<path d="M3214 3783 c7 -13 -4 -17 -31 -14 -7 1 -13 -2 -13 -8 0 -5 8 -8 18
-6 9 1 22 -1 28 -6 13 -10 12 26 -1 38 -4 5 -5 2 -1 -4z"/>
<path d="M3250 3777 c0 -2 6 -10 14 -16 11 -9 16 -9 22 1 4 7 4 10 -1 6 -4 -4
-14 -3 -22 3 -7 6 -13 9 -13 6z"/>
<path d="M8540 3765 c-14 -8 -20 -14 -14 -15 5 0 19 7 30 15 24 18 16 19 -16
0z"/>
<path d="M3104 3761 c7 -11 46 -35 46 -28 0 3 -12 12 -26 22 -15 9 -23 12 -20
6z"/>
<path d="M3350 3766 c0 -2 7 -7 16 -10 8 -3 12 -2 9 4 -6 10 -25 14 -25 6z"/>
<path d="M6360 3750 c6 -11 12 -20 14 -20 2 0 2 9 -1 20 -3 11 -9 20 -15 20
-5 0 -4 -9 2 -20z"/>
<path d="M6435 3751 c-3 -5 -2 -12 3 -15 5 -3 9 1 9 9 0 17 -3 19 -12 6z"/>
<path d="M8480 3752 c0 -7 -5 -11 -12 -9 -6 1 -14 -6 -16 -15 -2 -10 1 -18 7
-18 6 0 7 7 4 17 -4 10 -2 14 5 9 12 -7 28 12 18 21 -3 4 -6 1 -6 -5z"/>
<path d="M3090 3740 c0 -5 5 -10 11 -10 5 0 7 5 4 10 -3 6 -8 10 -11 10 -2 0
-4 -4 -4 -10z"/>
<path d="M8553 3728 c-2 -18 0 -20 7 -8 12 18 13 30 2 30 -4 0 -9 -10 -9 -22z"/>
<path d="M3065 3721 c-3 -12 -10 -19 -15 -16 -5 3 -11 1 -14 -4 -4 -5 1 -8 10
-7 17 3 40 34 31 43 -3 2 -8 -5 -12 -16z"/>
<path d="M3156 3725 c-3 -8 -1 -15 4 -15 6 0 10 7 10 15 0 8 -2 15 -4 15 -2 0
-6 -7 -10 -15z"/>
<path d="M3110 3720 c-9 -6 -10 -10 -3 -10 6 0 15 5 18 10 8 12 4 12 -15 0z"/>
<path d="M8491 3727 c2 -1 15 -11 29 -22 l25 -20 -19 23 c-11 12 -24 22 -29
22 -6 0 -8 -1 -6 -3z"/>
<path d="M8659 3713 c-13 -16 -12 -17 4 -4 16 13 21 21 13 21 -2 0 -10 -8 -17
-17z"/>
<path d="M6315 3709 c-4 -6 -5 -12 -2 -15 2 -3 7 2 10 11 7 17 1 20 -8 4z"/>
<path d="M3077 3695 c-6 -15 10 -32 20 -21 4 3 1 6 -5 6 -6 0 -9 7 -6 15 4 8
4 15 1 15 -3 0 -7 -7 -10 -15z"/>
<path d="M3133 3703 c4 -6 1 -14 -5 -16 -10 -4 -10 -6 0 -6 7 -1 10 -6 6 -13
-4 -6 -3 -8 4 -5 12 8 10 32 -3 44 -4 4 -5 3 -2 -4z"/>
<path d="M6337 3703 c-3 -5 -2 -16 2 -25 6 -17 7 -16 18 2 11 16 10 18 -4 13
-11 -4 -14 -3 -9 5 4 7 5 12 2 12 -3 0 -7 -3 -9 -7z"/>
<path d="M8474 3702 c-8 -5 -5 -12 10 -24 18 -13 23 -13 23 -3 0 8 -3 14 -6
13 -19 -2 -24 4 -11 12 8 5 11 10 5 10 -5 0 -15 -4 -21 -8z"/>
<path d="M3170 3696 c0 -2 8 -10 18 -17 15 -13 16 -12 3 4 -13 16 -21 21 -21
13z"/>
<path d="M8375 3690 c-4 -6 -3 -15 1 -22 5 -8 2 -9 -9 -5 -9 3 -19 2 -21 -2
-3 -5 5 -8 17 -7 15 1 21 7 19 19 -3 16 0 17 18 7 12 -6 24 -10 26 -7 2 2 -7
9 -21 15 -15 7 -27 8 -30 2z"/>
<path d="M6280 3679 c0 -5 5 -7 10 -4 6 3 10 8 10 11 0 2 -4 4 -10 4 -5 0 -10
-5 -10 -11z"/>
<path d="M3030 3670 c0 -5 5 -10 10 -10 6 0 10 5 10 10 0 6 -4 10 -10 10 -5 0
-10 -4 -10 -10z"/>
<path d="M6295 3662 c-9 -9 -5 -32 5 -32 5 0 7 7 4 15 -5 11 -2 13 10 9 9 -3
16 -2 16 3 0 10 -26 13 -35 5z"/>
<path d="M8395 3650 c-3 -5 -3 -10 1 -10 4 0 0 -6 -11 -13 -15 -12 -16 -15 -4
-22 8 -5 10 -4 6 0 -4 5 3 15 15 22 13 7 17 12 10 13 -7 0 -10 5 -7 10 3 6 4
10 1 10 -3 0 -8 -4 -11 -10z"/>
<path d="M8474 3646 c1 -8 5 -18 8 -22 4 -3 5 1 4 10 -1 8 -5 18 -8 22 -4 3
-5 -1 -4 -10z"/>
<path d="M2995 3640 c-13 -6 -15 -9 -5 -9 8 0 22 4 30 9 18 12 2 12 -25 0z"/>
<path d="M3033 3632 c-17 -13 -20 -21 -12 -32 9 -13 10 -13 6 0 -2 8 8 23 22
32 14 10 22 18 16 18 -5 0 -20 -8 -32 -18z"/>
<path d="M3105 3640 c-3 -6 1 -7 9 -4 18 7 21 14 7 14 -6 0 -13 -4 -16 -10z"/>
<path d="M8348 3633 c7 -3 16 -2 19 1 4 3 -2 6 -13 5 -11 0 -14 -3 -6 -6z"/>
<path d="M2955 3620 c-3 -5 -1 -10 4 -10 6 0 11 5 11 10 0 6 -2 10 -4 10 -3 0
-8 -4 -11 -10z"/>
<path d="M3057 3623 c-3 -5 8 -8 25 -9 20 -1 25 2 16 7 -16 11 -35 11 -41 2z"/>
<path d="M8310 3620 c0 -5 5 -10 10 -10 6 0 10 5 10 10 0 6 -4 10 -10 10 -5 0
-10 -4 -10 -10z"/>
<path d="M6268 3613 c7 -3 16 -2 19 1 4 3 -2 6 -13 5 -11 0 -14 -3 -6 -6z"/>
<path d="M6300 3616 c0 -2 7 -7 16 -10 8 -3 12 -2 9 4 -6 10 -25 14 -25 6z"/>
<path d="M8465 3600 c10 -11 20 -20 23 -20 3 0 -3 9 -13 20 -10 11 -20 20 -23
20 -3 0 3 -9 13 -20z"/>
<path d="M2975 3600 c-3 -5 -2 -10 4 -10 5 0 13 5 16 10 3 6 2 10 -4 10 -5 0
-13 -4 -16 -10z"/>
<path d="M8340 3600 c0 -5 5 -10 10 -10 6 0 10 5 10 10 0 6 -4 10 -10 10 -5 0
-10 -4 -10 -10z"/>
<path d="M8426 3602 c-3 -5 1 -9 9 -9 8 0 12 4 9 9 -3 4 -7 8 -9 8 -2 0 -6 -4
-9 -8z"/>
<path d="M8500 3605 c0 -2 6 -8 13 -14 10 -8 14 -7 14 2 0 8 -6 14 -14 14 -7
0 -13 -1 -13 -2z"/>
<path d="M2954 3582 c3 -5 0 -13 -6 -15 -9 -4 -10 -6 -1 -6 17 -1 25 16 12 25
-7 4 -9 3 -5 -4z"/>
<path d="M2990 3580 c-11 -7 -11 -10 -2 -10 8 0 10 -5 6 -12 -4 -7 -3 -9 1 -5
7 6 17 37 12 37 -1 0 -9 -5 -17 -10z"/>
<path d="M6268 3583 c7 -3 16 -2 19 1 4 3 -2 6 -13 5 -11 0 -14 -3 -6 -6z"/>
<path d="M6308 3583 c6 -2 18 -2 25 0 6 3 1 5 -13 5 -14 0 -19 -2 -12 -5z"/>
<path d="M8310 3580 c0 -5 5 -10 10 -10 6 0 10 5 10 10 0 6 -4 10 -10 10 -5 0
-10 -4 -10 -10z"/>
<path d="M6257 3551 c-4 -17 -3 -21 5 -13 5 5 8 16 6 23 -3 8 -7 3 -11 -10z"/>
<path d="M6285 3560 c-3 -6 1 -7 9 -4 18 7 21 14 7 14 -6 0 -13 -4 -16 -10z"/>
<path d="M8270 3560 c0 -5 7 -7 15 -4 8 4 15 8 15 10 0 2 -7 4 -15 4 -8 0 -15
-4 -15 -10z"/>
<path d="M8340 3559 c0 -4 10 -6 21 -4 32 6 34 13 4 13 -14 0 -25 -4 -25 -9z"/>
<path d="M8314 3545 c1 -8 8 -21 16 -28 12 -10 12 -9 2 4 -6 9 -9 18 -6 21 3
3 1 9 -4 12 -6 3 -9 -1 -8 -9z"/>
<path d="M2960 3535 c-10 -13 -11 -18 -1 -28 7 -7 12 -7 11 -2 -5 23 1 36 12
29 7 -4 8 -3 4 4 -9 15 -11 15 -26 -3z"/>
<path d="M6299 3543 c-1 -5 -1 -12 0 -17 1 -5 -5 -6 -14 -3 -22 9 -18 -1 6
-14 17 -9 20 -8 14 2 -6 9 -3 11 8 6 9 -3 21 1 28 11 11 14 11 15 0 5 -15 -13
-44 -6 -35 8 3 5 3 9 0 9 -3 0 -7 -3 -7 -7z"/>
<path d="M2864 3521 c7 -11 46 -35 46 -28 0 3 -12 12 -26 22 -15 9 -23 12 -20
6z"/>
<path d="M8292 3516 c7 -8 15 -12 17 -11 5 6 -10 25 -20 25 -5 0 -4 -6 3 -14z"/>
<path d="M2850 3500 c0 -5 5 -10 11 -10 5 0 7 5 4 10 -3 6 -8 10 -11 10 -2 0
-4 -4 -4 -10z"/>
<path d="M8268 3488 c-10 -10 -14 -18 -9 -18 10 0 36 29 30 34 -2 1 -12 -6
-21 -16z"/>
<path d="M2825 3481 c-3 -11 -12 -20 -18 -18 -7 1 -11 -7 -10 -20 2 -14 -2
-22 -10 -20 -18 3 -15 -46 3 -50 9 -3 11 -1 5 4 -15 13 -18 44 -3 41 8 -2 12
6 11 20 -2 13 1 21 7 17 9 -6 35 33 27 42 -3 2 -8 -5 -12 -16z"/>
<path d="M2916 3485 c-3 -8 -1 -15 4 -15 6 0 10 7 10 15 0 8 -2 15 -4 15 -2 0
-6 -7 -10 -15z"/>
<path d="M8330 3496 c0 -2 8 -10 18 -17 15 -13 16 -12 3 4 -13 16 -21 21 -21
13z"/>
<path d="M2870 3480 c-9 -6 -10 -10 -3 -10 6 0 15 5 18 10 8 12 4 12 -15 0z"/>
<path d="M2959 3473 c-12 -16 -12 -17 2 -6 9 7 20 9 24 5 5 -4 5 -1 1 6 -9 16
-11 15 -27 -5z"/>
<path d="M6250 3480 c0 -5 5 -10 10 -10 6 0 10 5 10 10 0 6 -4 10 -10 10 -5 0
-10 -4 -10 -10z"/>
<path d="M8191 3473 c7 -12 15 -20 18 -17 3 2 -3 12 -13 22 -17 16 -18 16 -5
-5z"/>
<path d="M2837 3455 c-6 -15 10 -32 20 -21 4 3 1 6 -5 6 -6 0 -9 7 -6 15 4 8
4 15 1 15 -3 0 -7 -7 -10 -15z"/>
<path d="M2893 3463 c4 -6 2 -13 -5 -15 -8 -3 -6 -6 4 -10 17 -7 19 15 3 29
-4 4 -5 3 -2 -4z"/>
<path d="M6271 3451 c-8 -14 -7 -20 2 -24 7 -3 12 5 12 19 0 29 -1 29 -14 5z"/>
<path d="M2930 3457 c0 -2 6 -10 14 -16 11 -9 16 -9 22 1 4 7 4 10 -1 6 -4 -4
-14 -3 -22 3 -7 6 -13 9 -13 6z"/>
<path d="M8233 3453 c-7 -2 -13 -9 -13 -14 0 -6 4 -8 9 -5 5 4 11 0 14 -6 3
-7 4 -3 4 10 -1 12 -1 22 -2 21 0 0 -6 -3 -12 -6z"/>
<path d="M8271 3427 c-13 -21 -12 -21 5 -5 10 10 16 20 13 22 -3 3 -11 -5 -18
-17z"/>
<path d="M8304 3442 c4 -3 14 -7 22 -8 9 -1 13 0 10 4 -4 3 -14 7 -22 8 -9 1
-13 0 -10 -4z"/>
<path d="M8191 3407 c-13 -21 -12 -21 5 -5 10 10 16 20 13 22 -3 3 -11 -5 -18
-17z"/>
<path d="M6315 3409 c-4 -6 -5 -12 -2 -15 2 -3 7 2 10 11 7 17 1 20 -8 4z"/>
<path d="M8122 3404 c10 -10 20 -16 22 -13 3 3 -5 11 -17 18 -21 13 -21 12 -5
-5z"/>
<path d="M2751 3394 c0 -11 3 -14 6 -6 3 7 2 16 -1 19 -3 4 -6 -2 -5 -13z"/>
<path d="M2805 3400 c-3 -6 1 -7 9 -4 18 7 21 14 7 14 -6 0 -13 -4 -16 -10z"/>
<path d="M2865 3400 c-3 -6 1 -7 9 -4 18 7 21 14 7 14 -6 0 -13 -4 -16 -10z"/>
<path d="M6260 3400 c0 -5 5 -10 11 -10 5 0 7 5 4 10 -3 6 -8 10 -11 10 -2 0
-4 -4 -4 -10z"/>
<path d="M2817 3383 c-3 -5 8 -8 25 -9 20 -1 25 2 16 7 -16 11 -35 11 -41 2z"/>
<path d="M6276 3375 c-11 -8 -15 -15 -9 -15 6 0 16 7 23 15 16 19 11 19 -14 0z"/>
<path d="M6330 3379 c0 -5 5 -7 10 -4 6 3 10 8 10 11 0 2 -4 4 -10 4 -5 0 -10
-5 -10 -11z"/>
<path d="M8070 3385 c0 -5 5 -17 10 -25 5 -8 10 -10 10 -5 0 6 -5 17 -10 25
-5 8 -10 11 -10 5z"/>
<path d="M8158 3373 c7 -3 16 -2 19 1 4 3 -2 6 -13 5 -11 0 -14 -3 -6 -6z"/>
<path d="M2686 3349 c-13 -19 -12 -49 1 -49 3 0 3 6 0 14 -3 7 1 23 9 35 8 11
13 21 10 21 -3 0 -12 -10 -20 -21z"/>
<path d="M2719 3353 c-13 -17 -13 -17 6 -3 11 8 22 16 24 17 2 2 0 3 -6 3 -6
0 -17 -8 -24 -17z"/>
<path d="M2750 3352 c-8 -9 -14 -20 -12 -25 1 -5 -8 -5 -20 -2 -26 9 -23 3 9
-14 18 -9 21 -8 19 7 -2 9 4 22 13 29 9 6 14 14 11 16 -3 3 -12 -2 -20 -11z"/>
<path d="M2950 3366 c0 -2 7 -7 16 -10 8 -3 12 -2 9 4 -6 10 -25 14 -25 6z"/>
<path d="M8096 3343 c-6 -14 -5 -15 5 -6 7 7 10 15 7 18 -3 3 -9 -2 -12 -12z"/>
<path d="M8148 3353 c7 -3 16 -2 19 1 4 3 -2 6 -13 5 -11 0 -14 -3 -6 -6z"/>
<path d="M6254 3339 c-3 -6 -3 -13 0 -16 3 -4 6 -1 6 5 0 6 7 9 15 6 8 -4 15
-4 15 -1 0 11 -30 16 -36 6z"/>
<path d="M6305 3340 c-3 -6 1 -7 9 -4 18 7 21 14 7 14 -6 0 -13 -4 -16 -10z"/>
<path d="M8030 3315 c0 -8 2 -15 4 -15 2 0 6 7 10 15 3 8 1 15 -4 15 -6 0 -10
-7 -10 -15z"/>
<path d="M8105 3320 c-3 -6 1 -7 9 -4 18 7 21 14 7 14 -6 0 -13 -4 -16 -10z"/>
<path d="M2835 3311 c-3 -5 -2 -12 3 -15 5 -3 9 1 9 9 0 17 -3 19 -12 6z"/>
<path d="M8070 3309 c0 -5 -6 -7 -12 -3 -7 4 -10 3 -5 -1 13 -15 46 -13 40 2
-6 16 -23 17 -23 2z"/>
<path d="M6255 3300 c-3 -5 -1 -10 4 -10 6 0 11 5 11 10 0 6 -2 10 -4 10 -3 0
-8 -4 -11 -10z"/>
<path d="M2670 3281 c0 -10 19 -25 25 -20 1 2 -3 10 -11 17 -8 7 -14 8 -14 3z"/>
<path d="M2691 3287 c2 -1 15 -11 29 -22 l25 -20 -19 23 c-11 12 -24 22 -29
22 -6 0 -8 -1 -6 -3z"/>
<path d="M2753 3270 c1 -21 10 -18 13 5 1 8 -2 15 -6 15 -5 0 -8 -9 -7 -20z"/>
<path d="M8029 3273 c12 -8 25 -12 28 -9 4 3 1 6 -6 6 -7 0 -10 4 -7 8 2 4 -5
9 -16 9 -21 2 -21 2 1 -14z"/>
<path d="M2618 3263 c-10 -19 -2 -46 15 -49 9 -1 17 2 17 8 0 6 -6 8 -14 5
-10 -4 -14 0 -13 14 1 11 9 19 20 19 10 0 16 -4 12 -9 -3 -5 -1 -12 4 -15 5
-4 8 2 7 11 -3 18 -41 31 -48 16z"/>
<path d="M6313 3249 c-2 -23 3 -25 10 -4 4 8 3 16 -1 19 -4 3 -9 -4 -9 -15z"/>
<path d="M7975 3260 c-8 -13 3 -44 16 -48 8 -2 10 0 4 5 -5 4 -12 17 -13 27
-3 18 -2 18 14 5 15 -12 16 -12 9 0 -6 11 -4 13 9 8 9 -4 15 -3 11 2 -6 10
-44 11 -50 1z"/>
<path d="M2685 3240 c-3 -6 1 -7 9 -4 18 7 21 14 7 14 -6 0 -13 -4 -16 -10z"/>
<path d="M2759 3233 c-12 -16 -12 -17 2 -6 9 7 20 9 24 5 5 -4 5 -1 1 6 -9 16
-11 15 -27 -5z"/>
<path d="M8035 3240 c-3 -5 -1 -10 4 -10 6 0 11 5 11 10 0 6 -2 10 -4 10 -3 0
-8 -4 -11 -10z"/>
<path d="M6275 3219 c-4 -6 -4 -13 -1 -16 3 -4 6 -1 6 6 0 7 5 9 12 5 7 -4 8
-3 4 4 -9 15 -13 15 -21 1z"/>
<path d="M8090 3219 c0 -5 5 -7 10 -4 6 3 10 8 10 11 0 2 -4 4 -10 4 -5 0 -10
-5 -10 -11z"/>
<path d="M8153 3215 c0 -8 4 -12 9 -9 5 3 6 10 3 15 -9 13 -12 11 -12 -6z"/>
<path d="M2656 3204 c-4 -9 -4 -19 -1 -22 3 -3 5 0 5 8 0 10 4 10 18 -1 16
-13 16 -13 2 6 -8 11 -15 21 -16 23 -1 2 -4 -5 -8 -14z"/>
<path d="M2591 3193 c0 -11 3 -13 6 -5 2 6 10 9 15 6 7 -4 8 -2 4 4 -11 18
-26 14 -25 -5z"/>
<path d="M7896 3195 c-3 -9 3 -19 14 -25 14 -7 20 -7 20 0 0 5 -7 10 -15 10
-9 0 -12 6 -9 15 4 8 4 15 1 15 -3 0 -7 -7 -11 -15z"/>
<path d="M7930 3200 c0 -5 5 -10 10 -10 6 0 10 5 10 10 0 6 -4 10 -10 10 -5 0
-10 -4 -10 -10z"/>
<path d="M8001 3201 c-8 -5 -9 -11 -3 -15 5 -3 12 1 16 9 6 17 6 18 -13 6z"/>
<path d="M8029 3183 c-13 -16 -12 -17 4 -4 9 7 17 15 17 17 0 8 -8 3 -21 -13z"/>
<path d="M7953 3155 c0 -30 6 -28 12 4 2 11 0 21 -4 21 -5 0 -8 -11 -8 -25z"/>
<path d="M2510 3160 c-13 -8 -12 -10 3 -10 9 0 17 5 17 10 0 12 -1 12 -20 0z"/>
<path d="M2551 3151 c-19 -14 -21 -20 -10 -26 8 -5 11 -4 6 0 -4 5 5 17 20 27
16 10 24 18 18 18 -5 0 -21 -9 -34 -19z"/>
<path d="M2584 3144 c-18 -14 -18 -15 4 -4 12 6 22 13 22 15 0 8 -5 6 -26 -11z"/>
<path d="M2475 3140 c-3 -5 -1 -10 4 -10 6 0 11 5 11 10 0 6 -2 10 -4 10 -3 0
-8 -4 -11 -10z"/>
<path d="M7830 3140 c0 -5 5 -10 10 -10 6 0 10 5 10 10 0 6 -4 10 -10 10 -5 0
-10 -4 -10 -10z"/>
<path d="M7895 3139 c-6 -8 -4 -10 5 -4 10 6 12 4 6 -11 -6 -15 -5 -17 5 -6 9
9 10 15 2 23 -8 8 -13 7 -18 -2z"/>
<path d="M2615 3130 c-4 -6 -10 -8 -15 -5 -5 3 -11 1 -14 -4 -8 -13 22 -7 36
7 7 7 9 12 6 12 -4 0 -10 -5 -13 -10z"/>
<path d="M7973 3125 c0 -8 4 -12 9 -9 5 3 6 10 3 15 -9 13 -12 11 -12 -6z"/>
<path d="M2506 3115 c4 -8 8 -15 10 -15 2 0 4 7 4 15 0 8 -4 15 -10 15 -5 0
-7 -7 -4 -15z"/>
<path d="M7877 3110 c10 -11 19 -20 21 -20 1 0 -2 9 -8 20 -6 11 -15 20 -20
20 -6 0 -2 -9 7 -20z"/>
<path d="M2480 3112 c0 -7 -5 -11 -12 -9 -6 1 -14 -6 -16 -15 -2 -10 1 -18 7
-18 6 0 7 7 4 17 -4 10 -2 14 5 9 12 -7 28 12 18 21 -3 4 -6 1 -6 -5z"/>
<path d="M7835 3109 c-4 -6 -5 -12 -2 -15 2 -3 7 2 10 11 7 17 1 20 -8 4z"/>
<path d="M2550 3101 c0 -6 4 -12 8 -15 5 -3 9 1 9 9 0 8 -4 15 -9 15 -4 0 -8
-4 -8 -9z"/>
<path d="M6311 3088 c5 -10 13 -18 16 -18 3 0 3 3 0 7 -4 3 -3 11 3 17 6 8 3
12 -10 12 -15 0 -16 -4 -9 -18z"/>
<path d="M7847 3090 c-9 -11 -13 -20 -7 -20 5 0 14 9 20 20 6 11 9 20 8 20 -2
0 -11 -9 -21 -20z"/>
<path d="M7916 3093 c-6 -14 -5 -15 5 -6 7 7 10 15 7 18 -3 3 -9 -2 -12 -12z"/>
<path d="M2486 3082 c-3 -5 1 -9 9 -9 8 0 15 4 15 9 0 4 -4 8 -9 8 -6 0 -12
-4 -15 -8z"/>
<path d="M7790 3080 c0 -5 7 -7 15 -4 8 4 15 8 15 10 0 2 -7 4 -15 4 -8 0 -15
-4 -15 -10z"/>
<path d="M2520 3076 c0 -2 7 -7 16 -10 8 -3 12 -2 9 4 -6 10 -25 14 -25 6z"/>
<path d="M7930 3059 c0 -5 5 -7 10 -4 6 3 10 8 10 11 0 2 -4 4 -10 4 -5 0 -10
-5 -10 -11z"/>
<path d="M2380 3045 c-9 -11 -10 -19 -3 -26 7 -7 14 -5 23 6 9 11 10 19 3 26
-7 7 -14 5 -23 -6z m12 -17 c-7 -7 -12 -8 -12 -2 0 14 12 26 19 19 2 -3 -1
-11 -7 -17z"/>
<path d="M2516 3044 c1 -6 -3 -18 -9 -25 -7 -7 -3 -6 9 4 11 9 24 14 29 10 4
-5 5 -2 1 5 -4 7 -11 10 -16 7 -4 -3 -10 -2 -13 2 -2 5 -3 3 -1 -3z"/>
<path d="M2630 3046 c0 -2 7 -7 16 -10 8 -3 12 -2 9 4 -6 10 -25 14 -25 6z"/>
<path d="M7812 3036 c7 -8 15 -12 17 -11 5 6 -10 25 -20 25 -5 0 -4 -6 3 -14z"/>
<path d="M7856 3033 c-6 -14 -5 -15 5 -6 7 7 10 15 7 18 -3 3 -9 -2 -12 -12z"/>
<path d="M2424 3024 c-18 -14 -18 -15 4 -4 12 6 22 13 22 15 0 8 -5 6 -26 -11z"/>
<path d="M2454 3018 c-4 -7 -3 -8 4 -4 16 10 15 -6 0 -24 -7 -8 -3 -6 10 4 26
23 26 22 7 29 -8 4 -17 1 -21 -5z"/>
<path d="M7788 3008 c-10 -10 -14 -18 -9 -18 10 0 36 29 30 34 -2 1 -12 -6
-21 -16z"/>
<path d="M2353 2999 c-2 -23 3 -25 10 -4 4 8 3 16 -1 19 -4 3 -9 -4 -9 -15z"/>
<path d="M2555 3009 c-4 -6 -5 -12 -2 -15 2 -3 7 2 10 11 7 17 1 20 -8 4z"/>
<path d="M6394 3000 c0 -13 4 -16 10 -10 7 7 7 13 0 20 -6 6 -10 3 -10 -10z"/>
<path d="M7875 3011 c-3 -5 -2 -12 3 -15 5 -3 9 1 9 9 0 17 -3 19 -12 6z"/>
<path d="M7711 2993 c7 -12 15 -20 18 -17 3 2 -3 12 -13 22 -17 16 -18 16 -5
-5z"/>
<path d="M2390 2991 c0 -6 5 -13 12 -17 6 -4 8 -3 4 4 -3 5 0 13 6 15 8 3 6 6
-4 6 -10 1 -18 -3 -18 -8z"/>
<path d="M7683 2983 c-7 -3 -13 -9 -13 -15 0 -6 7 -4 17 3 15 12 16 12 10 -3
-3 -10 -2 -18 3 -18 12 0 13 27 3 33 -5 2 -14 2 -20 0z"/>
<path d="M7753 2973 c-17 -6 -17 -20 0 -20 8 0 14 6 14 14 0 7 -1 13 -1 12 -1
0 -7 -3 -13 -6z"/>
<path d="M2330 2962 c0 -5 7 -9 15 -9 8 0 12 4 9 9 -3 4 -9 8 -15 8 -5 0 -9
-4 -9 -8z"/>
<path d="M2371 2967 c2 -1 15 -11 29 -22 l25 -20 -19 23 c-11 12 -24 22 -29
22 -6 0 -8 -1 -6 -3z"/>
<path d="M2430 2960 c0 -5 5 -10 10 -10 6 0 10 5 10 10 0 6 -4 10 -10 10 -5 0
-10 -4 -10 -10z"/>
<path d="M2556 2962 c-3 -5 1 -9 9 -9 8 0 12 4 9 9 -3 4 -7 8 -9 8 -2 0 -6 -4
-9 -8z"/>
<path d="M2296 2941 c-4 -5 -1 -13 5 -17 8 -4 9 -3 5 4 -4 7 -3 12 3 12 5 0
12 -5 14 -10 3 -6 4 -5 3 2 -3 16 -23 22 -30 9z"/>
<path d="M2360 2924 c-12 -32 -12 -34 0 -34 6 0 9 3 9 8 -4 24 2 42 13 36 7
-4 8 -3 4 4 -11 17 -15 15 -26 -14z"/>
<path d="M7656 2942 c-10 -9 -7 -32 4 -32 5 0 7 6 4 14 -4 11 0 13 15 9 12 -3
21 -3 21 0 0 7 -38 16 -44 9z"/>
<path d="M2270 2929 c0 -5 -4 -7 -10 -4 -5 3 -7 0 -4 -9 4 -11 0 -13 -18 -10
-21 4 -21 4 -3 -5 14 -6 23 -5 31 5 6 7 14 11 18 7 4 -4 4 0 0 10 -7 19 -14
22 -14 6z"/>
<path d="M6475 2931 c-3 -5 -2 -12 3 -15 5 -3 9 1 9 9 0 17 -3 19 -12 6z"/>
<path d="M7700 2920 c-8 -5 -10 -10 -5 -10 6 0 17 5 25 10 8 5 11 10 5 10 -5
0 -17 -5 -25 -10z"/>
<path d="M2201 2895 c0 -5 3 -16 8 -23 7 -11 9 -10 14 3 4 9 3 14 -2 10 -5 -3
-12 1 -14 7 -3 7 -6 9 -6 3z"/>
<path d="M2160 2880 c0 -5 5 -10 11 -10 5 0 7 5 4 10 -3 6 -8 10 -11 10 -2 0
-4 -4 -4 -10z"/>
<path d="M7607 2879 c7 -7 15 -10 18 -7 3 3 -2 9 -12 12 -14 6 -15 5 -6 -5z"/>
<path d="M7736 2873 c-6 -14 -5 -15 5 -6 7 7 10 15 7 18 -3 3 -9 -2 -12 -12z"/>
<path d="M2237 2873 c-11 -11 -8 -20 7 -20 8 0 12 6 9 14 -6 15 -7 15 -16 6z"/>
<path d="M2373 2865 c0 -8 4 -12 9 -9 5 3 6 10 3 15 -9 13 -12 11 -12 -6z"/>
<path d="M2129 2849 c-8 -16 -8 -24 1 -33 8 -8 9 -6 4 8 -5 13 -4 17 4 12 8
-5 10 -1 5 10 -5 13 -3 15 7 9 9 -5 11 -4 6 3 -10 16 -14 15 -27 -9z"/>
<path d="M6420 2866 c0 -2 8 -10 18 -17 15 -13 16 -12 3 4 -13 16 -21 21 -21
13z"/>
<path d="M6395 2851 c-3 -5 -2 -12 3 -15 5 -3 9 1 9 9 0 17 -3 19 -12 6z"/>
<path d="M7630 2851 c0 -6 4 -12 8 -15 5 -3 9 1 9 9 0 8 -4 15 -9 15 -4 0 -8
-4 -8 -9z"/>
<path d="M2072 2836 c7 -8 15 -12 17 -11 5 6 -10 25 -20 25 -5 0 -4 -6 3 -14z"/>
<path d="M2213 2835 c0 -8 4 -12 9 -9 5 3 6 10 3 15 -9 13 -12 11 -12 -6z"/>
<path d="M7510 2843 c0 -5 5 -15 10 -23 7 -12 9 -10 7 8 -1 19 -17 33 -17 15z"/>
<path d="M1748 2833 c7 -3 16 -2 19 1 4 3 -2 6 -13 5 -11 0 -14 -3 -6 -6z"/>
<path d="M2157 2827 c-3 -8 1 -14 8 -14 7 0 11 6 8 14 -3 7 -6 13 -8 13 -2 0
-5 -6 -8 -13z"/>
<path d="M7600 2836 c0 -2 7 -7 16 -10 8 -3 12 -2 9 4 -6 10 -25 14 -25 6z"/>
<path d="M7693 2825 c0 -8 4 -12 9 -9 5 3 6 10 3 15 -9 13 -12 11 -12 -6z"/>
<path d="M1839 2823 c0 -5 -2 -16 -4 -26 -2 -11 -1 -16 3 -13 8 8 14 46 7 46
-3 0 -5 -3 -6 -7z"/>
<path d="M6375 2820 c3 -5 8 -10 11 -10 2 0 4 5 4 10 0 6 -5 10 -11 10 -5 0
-7 -4 -4 -10z"/>
<path d="M7492 2825 c4 -4 0 -13 -9 -20 -13 -9 -13 -14 -3 -20 9 -6 11 -4 5 5
-5 9 -1 11 16 6 13 -3 18 -3 11 0 -6 3 -10 10 -7 14 3 5 0 12 -7 16 -7 4 -10
4 -6 -1z"/>
<path d="M1948 2813 c6 -2 18 -2 25 0 6 3 1 5 -13 5 -14 0 -19 -2 -12 -5z"/>
<path d="M6401 2801 c-11 -11 -23 -16 -27 -13 -4 4 -4 2 0 -5 4 -7 13 -10 21
-7 8 4 12 11 8 17 -4 6 0 8 9 5 9 -4 15 0 15 8 0 18 -3 18 -26 -5z"/>
<path d="M2005 2800 c-3 -6 1 -7 9 -4 18 7 21 14 7 14 -6 0 -13 -4 -16 -10z"/>
<path d="M7536 2793 c-6 -14 -5 -15 5 -6 7 7 10 15 7 18 -3 3 -9 -2 -12 -12z"/>
<path d="M7596 2801 c-3 -4 6 -7 19 -7 14 0 22 2 19 5 -8 8 -34 10 -38 2z"/>
<path d="M2032 2771 c7 -9 13 -18 15 -20 1 -2 1 5 0 16 0 11 -7 20 -14 20 -10
0 -10 -4 -1 -16z"/>
<path d="M6450 2780 c0 -5 5 -10 11 -10 5 0 7 5 4 10 -3 6 -8 10 -11 10 -2 0
-4 -4 -4 -10z"/>
<path d="M7375 2780 c3 -5 8 -10 11 -10 2 0 4 5 4 10 0 6 -5 10 -11 10 -5 0
-7 -4 -4 -10z"/>
<path d="M7453 2783 c4 -6 2 -13 -5 -15 -8 -3 -6 -6 4 -10 17 -7 19 15 3 29
-4 4 -5 3 -2 -4z"/>
<path d="M6351 2760 c-9 -5 -4 -7 13 -7 29 0 32 2 13 10 -8 3 -20 2 -26 -3z"/>
<path d="M6430 2761 c0 -6 4 -13 10 -16 6 -3 7 1 4 9 -7 18 -14 21 -14 7z"/>
<path d="M7347 2764 c-4 -4 -7 -12 -7 -18 0 -6 5 -4 10 4 9 13 11 13 21 0 9
-12 10 -12 7 -1 -5 17 -21 25 -31 15z"/>
<path d="M7400 2760 c-8 -5 -10 -10 -5 -10 6 0 17 5 25 10 8 5 11 10 5 10 -5
0 -17 -5 -25 -10z"/>
<path d="M7070 2750 c-9 -6 -10 -10 -3 -10 6 0 15 5 18 10 8 12 4 12 -15 0z"/>
<path d="M7241 2753 c-1 -17 16 -25 25 -12 4 7 3 9 -4 5 -5 -3 -13 0 -15 6 -4
9 -6 10 -6 1z"/>
<path d="M2085 2740 c-3 -6 1 -7 9 -4 18 7 21 14 7 14 -6 0 -13 -4 -16 -10z"/>
<path d="M6310 2740 c0 -5 5 -10 10 -10 6 0 10 5 10 10 0 6 -4 10 -10 10 -5 0
-10 -4 -10 -10z"/>
<path d="M7000 2740 c-9 -6 -10 -10 -3 -10 6 0 15 5 18 10 8 12 4 12 -15 0z"/>
<path d="M7176 2741 c-4 -5 3 -7 14 -4 23 6 26 13 6 13 -8 0 -17 -4 -20 -9z"/>
<path d="M7280 2746 c0 -2 7 -7 16 -10 8 -3 12 -2 9 4 -6 10 -25 14 -25 6z"/>
<path d="M7413 2737 c-3 -6 -1 -7 4 -4 6 4 13 1 16 -7 5 -13 50 -16 62 -4 3 3
-8 4 -25 3 -21 -2 -30 1 -27 10 6 14 -21 16 -30 2z"/>
<path d="M7550 2736 c4 -4 16 -4 26 2 16 9 14 10 -8 9 -15 -1 -23 -6 -18 -11z"/>
<path d="M6351 2731 c-8 -5 -9 -11 -3 -15 5 -3 12 1 16 9 6 17 6 18 -13 6z"/>
<path d="M7097 2720 c-3 -11 -2 -22 2 -24 4 -3 8 6 9 20 2 29 -4 31 -11 4z"/>
<path d="M6430 2716 c7 -7 13 -7 20 0 6 6 3 10 -10 10 -13 0 -16 -4 -10 -10z"/>
<path d="M6913 2715 c0 -8 4 -12 9 -9 5 3 6 10 3 15 -9 13 -12 11 -12 -6z"/>
<path d="M7179 2713 c-13 -16 -12 -17 4 -4 16 13 21 21 13 21 -2 0 -10 -8 -17
-17z"/>
<path d="M7335 2721 c-3 -5 -2 -12 3 -15 5 -3 9 1 9 9 0 17 -3 19 -12 6z"/>
<path d="M7510 2720 c0 -5 5 -10 11 -10 5 0 7 5 4 10 -3 6 -8 10 -11 10 -2 0
-4 -4 -4 -10z"/>
<path d="M6256 2703 c-6 -14 -5 -15 5 -6 7 7 10 15 7 18 -3 3 -9 -2 -12 -12z"/>
<path d="M6276 2695 c-3 -9 -6 -22 -5 -28 0 -7 5 -1 10 12 5 13 8 26 5 28 -2
2 -6 -3 -10 -12z"/>
<path d="M7230 2695 c5 -7 7 -15 3 -18 -3 -4 -1 -7 5 -7 6 0 10 8 9 18 0 10
-7 19 -14 19 -9 0 -10 -4 -3 -12z"/>
<path d="M6236 2677 c3 -10 9 -15 12 -12 3 3 0 11 -7 18 -10 9 -11 8 -5 -6z"/>
<path d="M6300 2686 c0 -2 11 -6 25 -8 13 -3 22 -1 19 3 -5 9 -44 13 -44 5z"/>
<path d="M7344 2682 c4 -3 14 -7 22 -8 9 -1 13 0 10 4 -4 3 -14 7 -22 8 -9 1
-13 0 -10 -4z"/>
<path d="M6310 2666 c0 -2 7 -7 16 -10 8 -3 12 -2 9 4 -6 10 -25 14 -25 6z"/>
<path d="M7295 2660 c-3 -5 -1 -10 4 -10 6 0 11 5 11 10 0 6 -2 10 -4 10 -3 0
-8 -4 -11 -10z"/>
<path d="M6220 2645 c0 -8 29 -12 39 -5 9 5 4 8 -13 8 -14 0 -26 -2 -26 -3z"/>
<path d="M6290 2642 c0 -4 10 -9 22 -9 18 -2 20 0 8 7 -18 12 -30 13 -30 2z"/>
<path d="M6217 2623 c-10 -10 -8 -33 3 -33 5 0 6 7 3 17 -5 12 -3 14 7 8 9 -5
11 -4 6 3 -8 14 -10 14 -19 5z"/>
<path d="M6255 2620 c-4 -6 1 -7 12 -3 16 6 17 5 3 -13 -14 -18 -14 -18 2 -5
10 7 15 17 12 22 -7 12 -21 11 -29 -1z"/>
<path d="M6176 2605 c-3 -8 -1 -15 4 -15 6 0 10 7 10 15 0 8 -2 15 -4 15 -2 0
-6 -7 -10 -15z"/>
<path d="M6330 2599 c0 -5 5 -7 10 -4 6 3 10 8 10 11 0 2 -4 4 -10 4 -5 0 -10
-5 -10 -11z"/>
<path d="M6124 2575 c-3 -8 -4 -20 -1 -27 3 -7 6 -3 6 10 1 15 5 21 13 16 7
-4 8 -3 4 4 -10 16 -15 15 -22 -3z"/>
<path d="M6194 2569 c-3 -6 -1 -16 6 -22 10 -9 11 -9 5 2 -4 8 -2 17 6 22 9 6
10 9 2 9 -6 0 -15 -5 -19 -11z"/>
<path d="M6240 2566 c7 -7 13 -7 20 0 6 6 3 10 -10 10 -13 0 -16 -4 -10 -10z"/>
<path d="M6349 2563 c-13 -16 -12 -17 4 -4 9 7 17 15 17 17 0 8 -8 3 -21 -13z"/>
<path d="M6150 2552 c0 -6 9 -12 20 -15 11 -3 20 -3 20 -1 0 2 -9 8 -20 14
-11 6 -20 7 -20 2z"/>
<path d="M6228 2543 c6 -2 9 -10 6 -15 -4 -7 -2 -8 5 -4 13 9 5 26 -12 25 -9
0 -8 -2 1 -6z"/>
<path d="M6075 2509 c-4 -6 -5 -12 -2 -15 2 -3 7 2 10 11 7 17 1 20 -8 4z"/>
<path d="M6093 2497 c-3 -5 -2 -11 1 -14 3 -4 6 -1 6 6 0 7 4 10 8 7 4 -2 14
-1 22 4 11 7 9 9 -8 7 -13 -1 -26 -5 -29 -10z"/>
<path d="M6156 2498 c3 -5 10 -6 15 -3 13 9 11 12 -6 12 -8 0 -12 -4 -9 -9z"/>
<path d="M6250 2500 c0 -5 5 -10 11 -10 5 0 7 5 4 10 -3 6 -8 10 -11 10 -2 0
-4 -4 -4 -10z"/>
<path d="M6025 2477 c-15 -12 -16 -15 -4 -22 8 -5 10 -4 6 0 -4 5 3 15 15 22
13 7 18 12 12 13 -5 0 -18 -6 -29 -13z"/>
<path d="M6131 2473 c0 -12 2 -13 6 -5 4 10 10 9 27 -5 l21 -18 -19 23 c-23
26 -36 28 -35 5z"/>
<path d="M6070 2471 c0 -7 -5 -9 -12 -5 -7 5 -8 3 -3 -5 5 -9 10 -10 18 -2 6
6 8 14 4 18 -4 3 -7 1 -7 -6z"/>
<path d="M6095 2463 c3 -3 -3 -11 -12 -18 -13 -9 -13 -14 -3 -20 9 -6 11 -4 5
5 -6 10 -4 12 7 7 16 -6 20 17 5 28 -4 3 -5 2 -2 -2z"/>
<path d="M6195 2460 c3 -5 8 -10 11 -10 2 0 4 5 4 10 0 6 -5 10 -11 10 -5 0
-7 -4 -4 -10z"/>
<path d="M6032 2441 c-11 -6 -10 -10 4 -15 9 -3 19 -4 22 -1 3 3 0 5 -7 5 -7
0 -9 5 -6 10 7 12 4 12 -13 1z"/>
<path d="M5955 2400 c-3 -5 -1 -10 4 -10 6 0 11 5 11 10 0 6 -2 10 -4 10 -3 0
-8 -4 -11 -10z"/>
<path d="M6040 2400 c-8 -5 -10 -10 -5 -10 6 0 17 5 25 10 8 5 11 10 5 10 -5
0 -17 -5 -25 -10z"/>
<path d="M6110 2400 c0 -5 5 -10 11 -10 5 0 7 5 4 10 -3 6 -8 10 -11 10 -2 0
-4 -4 -4 -10z"/>
<path d="M5990 2382 c0 -5 7 -9 15 -9 8 0 12 4 9 9 -3 4 -9 8 -15 8 -5 0 -9
-4 -9 -8z"/>
<path d="M5955 2360 c3 -5 8 -10 11 -10 2 0 4 5 4 10 0 6 -5 10 -11 10 -5 0
-7 -4 -4 -10z"/>
<path d="M6096 2358 c3 -5 10 -6 15 -3 13 9 11 12 -6 12 -8 0 -12 -4 -9 -9z"/>
<path d="M6053 2345 c0 -8 4 -12 9 -9 5 3 6 10 3 15 -9 13 -12 11 -12 -6z"/>
<path d="M6010 2339 c0 -5 5 -7 10 -4 6 3 10 8 10 11 0 2 -4 4 -10 4 -5 0 -10
-5 -10 -11z"/>
<path d="M6106 2318 c3 -5 10 -6 15 -3 13 9 11 12 -6 12 -8 0 -12 -4 -9 -9z"/>
</g>
</svg>
